<svg width="19" height="18" viewBox="0 0 19 18" fill="none" xmlns="http://www.w3.org/2000/svg">
<path d="M17.5385 0.915252H10.2308V0.711864C10.2308 0.523066 10.1538 0.342 10.0167 0.2085C9.87969 0.0749997 9.69381 0 9.5 0C9.30619 0 9.12031 0.0749997 8.98327 0.2085C8.84622 0.342 8.76923 0.523066 8.76923 0.711864V0.915252H1.46154C1.07391 0.915252 0.702166 1.06525 0.428075 1.33225C0.153983 1.59925 0 1.96138 0 2.33898V13.0169C0 13.3945 0.153983 13.7567 0.428075 14.0237C0.702166 14.2907 1.07391 14.4407 1.46154 14.4407H5.06058L3.0875 16.8432C3.00167 16.9476 2.94778 17.0735 2.93201 17.2064C2.91624 17.3393 2.93924 17.4738 2.99835 17.5946C3.05747 17.7153 3.15032 17.8174 3.26625 17.8891C3.38219 17.9608 3.51652 17.9992 3.65385 18C3.76293 18.0007 3.87071 17.977 3.96891 17.9307C4.0671 17.8844 4.15307 17.8168 4.22019 17.733L6.92404 14.4407H12.076L14.7798 17.733C14.8469 17.8168 14.9329 17.8844 15.0311 17.9307C15.1293 17.977 15.2371 18.0007 15.3462 18C15.4835 17.9992 15.6178 17.9608 15.7337 17.8891C15.8497 17.8174 15.9425 17.7153 16.0016 17.5946C16.0608 17.4738 16.0838 17.3393 16.068 17.2064C16.0522 17.0735 15.9983 16.9476 15.9125 16.8432L13.9394 14.4407H17.5385C17.9261 14.4407 18.2978 14.2907 18.5719 14.0237C18.846 13.7567 19 13.3945 19 13.0169V2.33898C19 1.96138 18.846 1.59925 18.5719 1.33225C18.2978 1.06525 17.9261 0.915252 17.5385 0.915252ZM17.5385 13.0169H1.46154V2.33898H17.5385V13.0169ZM7.30769 8.03389V10.1695C7.30769 10.3583 7.2307 10.5393 7.09365 10.6728C6.95661 10.8063 6.77074 10.8813 6.57692 10.8813C6.38311 10.8813 6.19724 10.8063 6.06019 10.6728C5.92315 10.5393 5.84615 10.3583 5.84615 10.1695V8.03389C5.84615 7.84509 5.92315 7.66403 6.06019 7.53053C6.19724 7.39703 6.38311 7.32203 6.57692 7.32203C6.77074 7.32203 6.95661 7.39703 7.09365 7.53053C7.2307 7.66403 7.30769 7.84509 7.30769 8.03389ZM10.2308 6.61016V10.1695C10.2308 10.3583 10.1538 10.5393 10.0167 10.6728C9.87969 10.8063 9.69381 10.8813 9.5 10.8813C9.30619 10.8813 9.12031 10.8063 8.98327 10.6728C8.84622 10.5393 8.76923 10.3583 8.76923 10.1695V6.61016C8.76923 6.42136 8.84622 6.2403 8.98327 6.1068C9.12031 5.9733 9.30619 5.8983 9.5 5.8983C9.69381 5.8983 9.87969 5.9733 10.0167 6.1068C10.1538 6.2403 10.2308 6.42136 10.2308 6.61016ZM13.1538 5.18644V10.1695C13.1538 10.3583 13.0769 10.5393 12.9398 10.6728C12.8028 10.8063 12.6169 10.8813 12.4231 10.8813C12.2293 10.8813 12.0434 10.8063 11.9063 10.6728C11.7693 10.5393 11.6923 10.3583 11.6923 10.1695V5.18644C11.6923 4.99764 11.7693 4.81657 11.9063 4.68307C12.0434 4.54957 12.2293 4.47457 12.4231 4.47457C12.6169 4.47457 12.8028 4.54957 12.9398 4.68307C13.0769 4.81657 13.1538 4.99764 13.1538 5.18644Z" fill="#FFC300"/>
</svg>
