<svg width="24" height="24" viewBox="0 0 24 24" fill="none" xmlns="http://www.w3.org/2000/svg">
<path d="M22.0003 20.59L17.3103 15.9C18.4085 14.5031 19.0039 12.7769 19.0003 11C19.0003 6.58 15.4203 3 11.0003 3C6.92031 3 3.56031 6.05 3.07031 10H5.09031C5.57031 7.17 8.03031 5 11.0003 5C14.3103 5 17.0003 7.69 17.0003 11C17.0003 14.31 14.3103 17 11.0003 17C8.58031 17 6.50031 15.56 5.55031 13.5H3.40031C4.45031 16.69 7.46031 19 11.0003 19C12.8503 19 14.5503 18.37 15.9003 17.31L20.5903 22L22.0003 20.59Z" fill="white"/>
<path d="M8.43 9.69L9.65 15H11.29L12.55 11.22L13.5 13.5H15.5V12H14.5L13.25 9H11.71L10.59 12.37L9.35 7H7.7L6.45 11H1V12.5H7.55L8.43 9.69Z" fill="white"/>
</svg>
