<svg width="24" height="24" viewBox="0 0 24 24" fill="none" xmlns="http://www.w3.org/2000/svg">
<path d="M17.25 22.5L15.6458 21.7402C15.005 21.4348 14.4636 20.9545 14.0839 20.3547C13.7043 19.7549 13.5019 19.0601 13.5 18.3502V13.5H21V18.351C20.9981 19.0608 20.7957 19.7557 20.4161 20.3555C20.0364 20.9553 19.495 21.4356 18.8542 21.741L17.25 22.5ZM15 15V18.351C15.0013 18.7767 15.1229 19.1934 15.3508 19.553C15.5786 19.9126 15.9034 20.2005 16.2877 20.3835L17.25 20.8395L18.2123 20.3843C18.5967 20.2012 18.9216 19.9131 19.1494 19.5534C19.3773 19.1937 19.4988 18.7768 19.5 18.351V15H15Z" fill="white"/>
<path d="M12 21H4.5V3.00001H10.5V7.50001C10.5012 7.89747 10.6596 8.27831 10.9407 8.55936C11.2217 8.84041 11.6025 8.99882 12 9.00001H16.5V11.25H18V7.50001C18.0026 7.40144 17.9839 7.30347 17.9451 7.21284C17.9062 7.12221 17.8482 7.04107 17.775 6.97501L12.525 1.72501C12.459 1.65177 12.3778 1.59372 12.2872 1.55488C12.1966 1.51603 12.0986 1.49731 12 1.50001H4.5C4.10254 1.5012 3.7217 1.65961 3.44065 1.94066C3.1596 2.22171 3.00119 2.60255 3 3.00001V21C3.00119 21.3975 3.1596 21.7783 3.44065 22.0594C3.7217 22.3404 4.10254 22.4988 4.5 22.5H12V21ZM12 3.30001L16.2 7.50001H12V3.30001Z" fill="white"/>
</svg>
