<svg width="21" height="18" viewBox="0 0 21 18" fill="none" xmlns="http://www.w3.org/2000/svg">
<path fill-rule="evenodd" clip-rule="evenodd" d="M0.712781 0.31831C0.758981 0.21718 0.847226 0.132913 0.967535 0.0749943C1.13572 -0.00592751 1.22374 -0.0113344 1.9871 0.0121265C2.44661 0.0262397 3.605 0.0778811 4.56129 0.126865C6.95692 0.249485 7.12374 0.289625 9.18888 1.23929C9.73452 1.49021 10.395 1.78805 10.6566 1.90114C10.9182 2.01428 11.9045 2.45444 12.8484 2.87935C13.7923 3.30421 15.3165 3.98962 16.2355 4.40248C17.1545 4.81534 18.4078 5.37849 19.0205 5.65393C19.6333 5.92941 20.1297 6.15971 20.1238 6.16571C20.1179 6.17176 19.0577 6.12378 17.7678 6.05918C15.2075 5.93092 14.6908 5.93303 14.3342 6.07329C13.8457 6.26542 13.6298 6.46369 12.6808 7.59188C11.3774 9.14132 11.2952 9.24438 11.2084 9.24846C11.1978 9.24896 11.1872 9.24798 11.1742 9.24798C11.0374 9.24798 10.9106 9.18635 5.89355 6.68222C3.60839 5.54162 1.38907 4.43542 0.961755 4.224C0.533852 4.01226 0.153413 3.7941 0.114981 3.73842C0.035271 3.623 0.0241613 3.34188 0.0900968 3.10869C0.1148 3.02126 0.24911 2.39249 0.388568 1.71139C0.528026 1.03029 0.673942 0.403401 0.712781 0.31831ZM0.892884 5.98077C0.581723 5.80793 0.541935 5.7178 0.541935 5.1859C0.541935 4.97544 0.557155 4.802 0.575806 4.80044C0.594458 4.79893 1.12239 5.06181 1.74901 5.38467L2.88838 5.9717L2.88933 6.51011C2.88987 6.80626 2.88265 7.04852 2.87325 7.04852C2.85686 7.04852 1.43175 6.28018 0.892884 5.98077ZM3.41474 7.74085C3.24935 7.59784 3.19349 7.36827 3.17114 6.73922C3.15921 6.40532 3.15971 6.13208 3.17217 6.13208C3.19995 6.13208 5.11641 7.08316 8.06129 8.5584L10.5116 9.78579L10.7489 9.90461L10.7198 10.6875C10.7038 11.1181 10.6845 11.4778 10.6769 11.4868C10.6637 11.5027 9.04843 10.6861 8.10645 10.1874C7.85806 10.0559 6.72 9.46816 5.57742 8.8814C4.43484 8.29465 3.46161 7.7814 3.41474 7.74085ZM13.6575 6.8738C13.8582 6.65505 14.2118 6.42864 14.5216 6.32055C14.6722 6.26799 14.9094 6.2262 15.0613 6.22542C15.3972 6.22372 18.0304 6.35716 18.0498 6.37686C18.0576 6.38474 18.0339 6.9051 17.9972 7.53318C17.9605 8.16131 17.9301 8.73706 17.9297 8.81267C17.9293 8.90051 17.7616 9.25609 17.465 9.79785C16.5209 11.5229 16.2882 11.8615 15.9949 11.9366C15.8405 11.9761 11.6055 11.8649 11.3369 11.8143C11.0091 11.7526 10.9572 11.6492 10.9909 11.1267C11.0063 10.8873 11.019 10.5134 11.0191 10.296C11.0194 9.9009 11.0194 9.90058 11.1534 9.84426C11.2271 9.81329 11.3634 9.69223 11.4564 9.57524C11.9695 8.92915 13.5385 7.00348 13.6575 6.8738ZM18.1193 9.15059C18.2079 8.94249 18.2136 8.69816 18.3172 6.88319L18.3463 6.3742L18.6457 6.39097C18.8104 6.40018 19.3807 6.42873 19.913 6.45444C20.8082 6.49765 21 6.52995 21 6.63763C21 6.65748 20.7511 6.97007 20.4468 7.33225C20.1425 7.69443 19.5481 8.40747 19.1258 8.91678C18.4226 9.76499 18.3459 9.84284 18.2134 9.84326C18.0605 9.84371 17.8278 9.75656 17.8488 9.70675C17.8557 9.69053 17.9364 9.52397 18.0282 9.3366C18.0666 9.25818 18.0958 9.20565 18.1193 9.15059ZM13.3907 7.67431C13.4242 7.62785 13.5293 7.56173 13.6242 7.52736C13.7284 7.4896 13.904 7.4727 14.0677 7.48461C14.2168 7.49547 14.741 7.51609 15.2326 7.53039C16.1597 7.55733 16.3156 7.5829 16.366 7.71638C16.3953 7.79373 15.875 9.69576 15.7324 10.0331C15.6182 10.303 15.5847 10.3078 14.1898 10.2509C12.8297 10.1955 12.7355 10.1758 12.7355 9.94668C12.7355 9.78332 13.3122 7.78319 13.3907 7.67431ZM5.71064 10.1952C5.60411 9.95909 5.46704 9.42146 5.46528 9.23272C5.46488 9.18649 5.47978 9.15592 5.49839 9.16472C5.92588 9.3668 7.67742 10.2869 7.67742 10.3093C7.67742 10.3731 7.37836 10.7331 7.21384 10.8675C7.07813 10.9783 6.98952 11.0103 6.77523 11.0261C6.54644 11.0429 6.47694 11.0281 6.30601 10.9265C6.06552 10.7835 5.86487 10.537 5.71064 10.1952ZM7.22761 11.194C7.44384 11.0833 7.77971 10.7467 7.86633 10.5538C7.8946 10.4909 7.92784 10.4394 7.94017 10.4394C7.95254 10.4394 8.37588 10.6507 8.88097 10.909L9.79928 11.3787L9.79964 11.6193L9.8 11.8598H7.97097H6.14194V11.5233V11.1867L6.3971 11.2741C6.69448 11.376 6.91311 11.3549 7.22761 11.194ZM0 18V14.9757V11.9515H0.248387C0.385 11.9515 0.496503 11.9669 0.496187 11.9859C0.493477 12.1472 0.977742 14.7925 1.01003 14.7925C1.04323 14.7925 4.04794 13.7517 5.80323 13.1322L6.11935 13.0206L6.13299 12.7839L6.14668 12.5472H7.16281H8.17894L8.16525 12.7831L8.15161 13.019L7.90323 13.1249C7.76661 13.1832 6.48629 13.7173 5.05806 14.3118C3.62984 14.9064 2.13215 15.5301 1.7299 15.6978L0.998516 16.0028L0.88751 16.4859C0.826452 16.7516 0.729129 17.201 0.671277 17.4845L0.566006 18H0.283026H0ZM1.37141 14.2743C1.35705 14.2592 0.948387 12.0592 0.948387 11.997C0.948387 11.9184 3.95292 11.9574 4.03141 12.037C4.08136 12.0877 4.43366 13.2418 4.40729 13.2685C4.38724 13.2889 1.38135 14.2848 1.37141 14.2743ZM8.44516 13.2259V12.8866V12.5472H9.12421H9.80325L9.79034 12.9868L9.77742 13.4264L7.25521 14.7234C5.86799 15.4368 4.71439 16.0393 4.69163 16.0624C4.66882 16.0855 4.57014 16.4752 4.47232 16.9284C4.26724 17.8787 4.26178 17.8961 4.15249 17.9555C4.10408 17.9817 3.4566 18 2.57356 18H1.07669L1.11043 17.8511C1.12899 17.7691 1.21872 17.3529 1.3099 16.9259L1.47569 16.1497L1.83301 16C3.30066 15.3853 7.85224 13.4764 8.11684 13.3646L8.44516 13.2259ZM1.83301 1.71139L1.9871 0.818182H3.17114L2.88933 1.90114L1.83301 1.71139Z" fill="#FFC300"/>
</svg>
