<svg width="24" height="24" viewBox="0 0 24 24" fill="none" xmlns="http://www.w3.org/2000/svg">
<path fill-rule="evenodd" clip-rule="evenodd" d="M5.23721 22.5H18.7342C19.1713 22.2002 19.4208 22.1916 19.7267 21.6823C19.9965 21.2328 19.9797 20.6559 19.9778 20.0734C19.9722 18.3335 20.0736 9.39494 19.8847 8.95737C19.5607 8.20694 17.7602 8.50268 16.8904 8.50332C15.5218 8.50429 15.032 8.55248 14.2444 7.6611C13.3086 6.60215 13.5776 4.80346 13.5834 2.80451C13.5864 1.79423 13.5339 1.92484 12.9906 1.5H5.23721C4.73634 1.84344 4.07992 2.03345 4 3.17589L4.007 20.914C4.11317 21.9871 4.78301 22.1885 5.23721 22.5ZM7.66002 17.3295C6.93829 17.6881 7.01687 18.8861 7.95206 18.9994C8.72348 19.093 16.0882 19.0119 16.2811 18.938C17.0255 18.6527 16.9591 17.3769 16.0417 17.2499C15.3155 17.1494 7.87593 17.2222 7.66002 17.3295ZM7.77096 13.7927C6.90348 14.0886 7.05137 15.3285 7.8622 15.4804C8.40064 15.5814 16.0958 15.4979 16.2441 15.4445C16.9786 15.1805 16.9409 13.9032 16.1049 13.759C15.5322 13.6602 7.9213 13.7414 7.77096 13.7927ZM7.66269 10.3314C6.93731 10.6805 7.01465 11.8854 7.9558 12.0045C8.70802 12.0998 16.0835 12.0172 16.2817 11.9404C17.024 11.6529 16.9547 10.3741 16.0413 10.2546C15.2888 10.156 7.88386 10.2249 7.66269 10.3314Z" fill="white"/>
<path fill-rule="evenodd" clip-rule="evenodd" d="M16.1633 1.5H15.7461C15.057 2.0336 15.1794 2.25316 15.1806 3.45998C15.1819 4.64564 14.9297 6.65707 16.8008 6.73969C17.4482 6.76831 18.5694 6.79241 19.1967 6.73632C19.9404 6.6699 20.2582 5.84197 19.7415 5.28526L16.7865 2.08007C16.4401 1.67962 16.6271 1.81418 16.1633 1.5Z" fill="white"/>
</svg>
