<svg width="21" height="16" viewBox="0 0 21 16" fill="none" xmlns="http://www.w3.org/2000/svg">
<path d="M10.2216 4.15082L3.50028 9.57464V15.4285C3.50028 15.5801 3.56173 15.7254 3.67112 15.8326C3.78051 15.9398 3.92887 16 4.08356 16L8.16877 15.9896C8.32296 15.9889 8.47058 15.9283 8.57933 15.8212C8.68809 15.7142 8.74914 15.5692 8.74914 15.4181V11.9996C8.74914 11.848 8.8106 11.7026 8.91998 11.5954C9.02937 11.4883 9.17773 11.4281 9.33243 11.4281H11.6656C11.8203 11.4281 11.9686 11.4883 12.078 11.5954C12.1874 11.7026 12.2489 11.848 12.2489 11.9996V15.4156C12.2486 15.4908 12.2635 15.5654 12.2927 15.6349C12.322 15.7044 12.3649 15.7677 12.4191 15.8209C12.4733 15.8742 12.5376 15.9164 12.6085 15.9453C12.6794 15.9741 12.7554 15.9889 12.8322 15.9889L16.9159 16C17.0706 16 17.219 15.9398 17.3284 15.8326C17.4377 15.7254 17.4992 15.5801 17.4992 15.4285V9.57071L10.7794 4.15082C10.7004 4.08843 10.6019 4.05441 10.5005 4.05441C10.399 4.05441 10.3006 4.08843 10.2216 4.15082V4.15082ZM20.8385 7.8373L17.7908 5.37596V0.428619C17.7908 0.314942 17.7448 0.205921 17.6627 0.12554C17.5807 0.0451581 17.4694 0 17.3534 0H15.3119C15.1958 0 15.0846 0.0451581 15.0025 0.12554C14.9205 0.205921 14.8744 0.314942 14.8744 0.428619V3.02212L11.6105 0.391115C11.2973 0.138579 10.9043 0.000504822 10.4986 0.000504822C10.093 0.000504822 9.69997 0.138579 9.38675 0.391115L0.158763 7.8373C0.114465 7.87318 0.0778157 7.91725 0.0509086 7.967C0.0240015 8.01676 0.00736429 8.07122 0.00194751 8.12728C-0.00346927 8.18334 0.00244057 8.23989 0.0193394 8.29371C0.0362382 8.34753 0.0637947 8.39756 0.100435 8.44094L1.03005 9.54821C1.06659 9.59174 1.11153 9.62778 1.16231 9.65428C1.21309 9.68077 1.2687 9.69719 1.32596 9.7026C1.38322 9.708 1.441 9.70229 1.49601 9.68579C1.55102 9.66929 1.60216 9.64232 1.64651 9.60643L10.2216 2.68637C10.3006 2.62398 10.399 2.58996 10.5005 2.58996C10.6019 2.58996 10.7004 2.62398 10.7794 2.68637L19.3548 9.60643C19.3991 9.64233 19.4501 9.66933 19.5051 9.68588C19.56 9.70244 19.6177 9.70823 19.6749 9.70292C19.7321 9.69762 19.7877 9.68132 19.8385 9.65495C19.8893 9.62859 19.9343 9.59268 19.9709 9.54928L20.9005 8.44201C20.9371 8.39838 20.9645 8.34809 20.9812 8.29404C20.9979 8.23998 21.0036 8.18323 20.9978 8.12704C20.9921 8.07084 20.975 8.01632 20.9477 7.96659C20.9203 7.91687 20.8832 7.87293 20.8385 7.8373V7.8373Z" fill="#FFC300"/>
</svg>
