<svg width="24" height="24" viewBox="0 0 24 24" fill="none" xmlns="http://www.w3.org/2000/svg">
<g clip-path="url(#clip0_2589_66588)">
<path fill-rule="evenodd" clip-rule="evenodd" d="M24 12C24 18.627 18.627 24 12 24C5.373 24 0 18.627 0 12C0 5.373 5.373 0 12 0C18.627 0 24 5.373 24 12ZM6 16.2H15V9.6C15 9.36362 14.9534 9.12956 14.863 8.91117C14.7725 8.69278 14.6399 8.49435 14.4728 8.32721C14.3056 8.16006 14.1072 8.02748 13.8888 7.93702C13.6704 7.84656 13.4364 7.8 13.2 7.8H4.2V14.4C4.2 14.8774 4.38964 15.3352 4.72721 15.6728C4.89435 15.8399 5.09278 15.9725 5.31117 16.063C5.52956 16.1534 5.76362 16.2 6 16.2ZM16.2 13.8L19.8 16.2V7.8L16.2 10.2V13.8Z" fill="white"/>
</g>
<defs>
<clipPath id="clip0_2589_66588">
<rect width="24" height="24" fill="white"/>
</clipPath>
</defs>
</svg>
