<svg width="24" height="25" viewBox="0 0 24 25" fill="none" xmlns="http://www.w3.org/2000/svg">
<path d="M11 11.25C11 11.0511 11.079 10.8603 11.2197 10.7197C11.3603 10.579 11.5511 10.5 11.75 10.5H16.25C16.4489 10.5 16.6397 10.579 16.7803 10.7197C16.921 10.8603 17 11.0511 17 11.25C17 11.4489 16.921 11.6397 16.7803 11.7803C16.6397 11.921 16.4489 12 16.25 12H11.75C11.5511 12 11.3603 11.921 11.2197 11.7803C11.079 11.6397 11 11.4489 11 11.25ZM11 15.75C11 15.5511 11.079 15.3603 11.2197 15.2197C11.3603 15.079 11.5511 15 11.75 15H16.25C16.4489 15 16.6397 15.079 16.7803 15.2197C16.921 15.3603 17 15.5511 17 15.75C17 15.9489 16.921 16.1397 16.7803 16.2803C16.6397 16.421 16.4489 16.5 16.25 16.5H11.75C11.5511 16.5 11.3603 16.421 11.2197 16.2803C11.079 16.1397 11 15.9489 11 15.75ZM8.75 12C8.94891 12 9.13968 11.921 9.28033 11.7803C9.42098 11.6397 9.5 11.4489 9.5 11.25C9.5 11.0511 9.42098 10.8603 9.28033 10.7197C9.13968 10.579 8.94891 10.5 8.75 10.5C8.55109 10.5 8.36032 10.579 8.21967 10.7197C8.07902 10.8603 8 11.0511 8 11.25C8 11.4489 8.07902 11.6397 8.21967 11.7803C8.36032 11.921 8.55109 12 8.75 12V12ZM8.75 16.5C8.94891 16.5 9.13968 16.421 9.28033 16.2803C9.42098 16.1397 9.5 15.9489 9.5 15.75C9.5 15.5511 9.42098 15.3603 9.28033 15.2197C9.13968 15.079 8.94891 15 8.75 15C8.55109 15 8.36032 15.079 8.21967 15.2197C8.07902 15.3603 8 15.5511 8 15.75C8 15.9489 8.07902 16.1397 8.21967 16.2803C8.36032 16.421 8.55109 16.5 8.75 16.5V16.5ZM8.1275 3C8.28266 2.56113 8.57012 2.18119 8.95026 1.91254C9.3304 1.64389 9.78451 1.49976 10.25 1.5H14.75C15.2155 1.49976 15.6696 1.64389 16.0497 1.91254C16.4299 2.18119 16.7173 2.56113 16.8725 3H17.75C18.3467 3 18.919 3.23705 19.341 3.65901C19.7629 4.08097 20 4.65326 20 5.25V20.25C20 20.8467 19.7629 21.419 19.341 21.841C18.919 22.2629 18.3467 22.5 17.75 22.5H7.25C6.65326 22.5 6.08097 22.2629 5.65901 21.841C5.23705 21.419 5 20.8467 5 20.25V5.25C5 4.65326 5.23705 4.08097 5.65901 3.65901C6.08097 3.23705 6.65326 3 7.25 3H8.1275ZM10.25 3C10.0511 3 9.86032 3.07902 9.71967 3.21967C9.57902 3.36032 9.5 3.55109 9.5 3.75C9.5 3.94891 9.57902 4.13968 9.71967 4.28033C9.86032 4.42098 10.0511 4.5 10.25 4.5H14.75C14.9489 4.5 15.1397 4.42098 15.2803 4.28033C15.421 4.13968 15.5 3.94891 15.5 3.75C15.5 3.55109 15.421 3.36032 15.2803 3.21967C15.1397 3.07902 14.9489 3 14.75 3H10.25ZM8.1275 4.5H7.25C7.05109 4.5 6.86032 4.57902 6.71967 4.71967C6.57902 4.86032 6.5 5.05109 6.5 5.25V20.25C6.5 20.4489 6.57902 20.6397 6.71967 20.7803C6.86032 20.921 7.05109 21 7.25 21H17.75C17.9489 21 18.1397 20.921 18.2803 20.7803C18.421 20.6397 18.5 20.4489 18.5 20.25V5.25C18.5 5.05109 18.421 4.86032 18.2803 4.71967C18.1397 4.57902 17.9489 4.5 17.75 4.5H16.8725C16.7173 4.93887 16.4299 5.31881 16.0497 5.58746C15.6696 5.85611 15.2155 6.00024 14.75 6H10.25C9.78451 6.00024 9.3304 5.85611 8.95026 5.58746C8.57012 5.31881 8.28266 4.93887 8.1275 4.5V4.5Z" fill="white"/>
</svg>
