<svg width="21" height="20" viewBox="0 0 21 20" fill="none" xmlns="http://www.w3.org/2000/svg">
<path d="M18.5385 1.91525H11.2308V1.71186C11.2308 1.52307 11.1538 1.342 11.0167 1.2085C10.8797 1.075 10.6938 1 10.5 1C10.3062 1 10.1203 1.075 9.98327 1.2085C9.84622 1.342 9.76923 1.52307 9.76923 1.71186V1.91525H2.46154C2.07391 1.91525 1.70217 2.06525 1.42807 2.33225C1.15398 2.59925 1 2.96138 1 3.33898V14.0169C1 14.3945 1.15398 14.7567 1.42807 15.0237C1.70217 15.2907 2.07391 15.4407 2.46154 15.4407H6.06058L4.0875 17.8432C4.00167 17.9476 3.94778 18.0735 3.93201 18.2064C3.91624 18.3393 3.93924 18.4738 3.99835 18.5946C4.05747 18.7153 4.15032 18.8174 4.26625 18.8891C4.38219 18.9608 4.51652 18.9992 4.65385 19C4.76293 19.0007 4.87071 18.977 4.96891 18.9307C5.0671 18.8844 5.15307 18.8168 5.22019 18.733L7.92404 15.4407H13.076L15.7798 18.733C15.8469 18.8168 15.9329 18.8844 16.0311 18.9307C16.1293 18.977 16.2371 19.0007 16.3462 19C16.4835 18.9992 16.6178 18.9608 16.7337 18.8891C16.8497 18.8174 16.9425 18.7153 17.0016 18.5946C17.0608 18.4738 17.0838 18.3393 17.068 18.2064C17.0522 18.0735 16.9983 17.9476 16.9125 17.8432L14.9394 15.4407H18.5385C18.9261 15.4407 19.2978 15.2907 19.5719 15.0237C19.846 14.7567 20 14.3945 20 14.0169V3.33898C20 2.96138 19.846 2.59925 19.5719 2.33225C19.2978 2.06525 18.9261 1.91525 18.5385 1.91525ZM18.5385 14.0169H2.46154V3.33898H18.5385V14.0169ZM8.30769 9.03389V11.1695C8.30769 11.3583 8.2307 11.5393 8.09365 11.6728C7.95661 11.8063 7.77074 11.8813 7.57692 11.8813C7.38311 11.8813 7.19724 11.8063 7.06019 11.6728C6.92315 11.5393 6.84615 11.3583 6.84615 11.1695V9.03389C6.84615 8.84509 6.92315 8.66403 7.06019 8.53053C7.19724 8.39703 7.38311 8.32203 7.57692 8.32203C7.77074 8.32203 7.95661 8.39703 8.09365 8.53053C8.2307 8.66403 8.30769 8.84509 8.30769 9.03389ZM11.2308 7.61016V11.1695C11.2308 11.3583 11.1538 11.5393 11.0167 11.6728C10.8797 11.8063 10.6938 11.8813 10.5 11.8813C10.3062 11.8813 10.1203 11.8063 9.98327 11.6728C9.84622 11.5393 9.76923 11.3583 9.76923 11.1695V7.61016C9.76923 7.42136 9.84622 7.2403 9.98327 7.1068C10.1203 6.9733 10.3062 6.8983 10.5 6.8983C10.6938 6.8983 10.8797 6.9733 11.0167 7.1068C11.1538 7.2403 11.2308 7.42136 11.2308 7.61016ZM14.1538 6.18644V11.1695C14.1538 11.3583 14.0769 11.5393 13.9398 11.6728C13.8028 11.8063 13.6169 11.8813 13.4231 11.8813C13.2293 11.8813 13.0434 11.8063 12.9063 11.6728C12.7693 11.5393 12.6923 11.3583 12.6923 11.1695V6.18644C12.6923 5.99764 12.7693 5.81657 12.9063 5.68307C13.0434 5.54957 13.2293 5.47457 13.4231 5.47457C13.6169 5.47457 13.8028 5.54957 13.9398 5.68307C14.0769 5.81657 14.1538 5.99764 14.1538 6.18644Z" fill="white"/>
</svg>
