<svg width="14" height="19" viewBox="0 0 14 19" fill="none" xmlns="http://www.w3.org/2000/svg">
<path d="M11.9885 16.5H4.6875C3.48088 16.5 2.5 15.5191 2.5 14.3125C2.5 13.1059 3.48088 12.125 4.6875 12.125H10.8125C12.5012 12.125 13.875 10.7512 13.875 9.0625C13.875 7.37375 12.5012 6 10.8125 6H6.55912C6.23778 6.6299 5.83985 7.21768 5.37437 7.75H10.8125C11.5361 7.75 12.125 8.33887 12.125 9.0625C12.125 9.78613 11.5361 10.375 10.8125 10.375H4.6875C2.51663 10.375 0.75 12.1416 0.75 14.3125C0.75 16.4834 2.51663 18.25 4.6875 18.25H13.0814C12.652 17.7099 12.2854 17.1228 11.9885 16.5V16.5ZM3.375 0.75C1.92775 0.75 0.75 1.92775 0.75 3.375C0.75 6.1645 3.375 7.75 3.375 7.75C3.375 7.75 6 6.16363 6 3.375C6 1.92775 4.82225 0.75 3.375 0.75ZM3.375 4.6875C3.20258 4.68744 3.03186 4.65343 2.87259 4.58739C2.71332 4.52136 2.56862 4.4246 2.44674 4.30264C2.32486 4.18068 2.2282 4.03591 2.16227 3.8766C2.09635 3.71728 2.06244 3.54654 2.0625 3.37413C2.06256 3.20171 2.09657 3.03099 2.16261 2.87172C2.22864 2.71245 2.3254 2.56774 2.44736 2.44587C2.56932 2.32399 2.71409 2.22733 2.8734 2.1614C3.03272 2.09547 3.20346 2.06157 3.37587 2.06163C3.72409 2.06174 4.05799 2.20018 4.30413 2.44648C4.55028 2.69279 4.68849 3.02679 4.68837 3.375C4.68826 3.72321 4.54982 4.05712 4.30352 4.30326C4.05721 4.5494 3.72321 4.68762 3.375 4.6875V4.6875Z" fill="#FFC300"/>
</svg>
