<svg width="24" height="24" viewBox="0 0 24 24" fill="none" xmlns="http://www.w3.org/2000/svg">
<path fill-rule="evenodd" clip-rule="evenodd" d="M0.60552 0.600125C0.526264 0.599396 0.447648 0.614377 0.374214 0.644203C0.300781 0.674029 0.233984 0.718109 0.177683 0.773897C0.121382 0.829685 0.0766919 0.896075 0.0461945 0.969233C0.0156971 1.04239 -3.35381e-06 1.12087 5.37368e-10 1.20012L5.37369e-10 18.0697C1.91882e-05 18.1841 0.0327178 18.296 0.0942445 18.3924C0.155771 18.4888 0.243563 18.5656 0.34728 18.6138L4.884 20.721C4.8912 20.294 4.91904 19.8659 4.98384 19.4442L1.2 17.6867V2.14044L7.746 5.18124L7.77384 10.0187C7.98938 9.80105 8.22993 9.60972 8.49048 9.44868L8.46648 5.26836L15.3487 2.07132L15.3857 8.51388C15.61 8.33521 15.8501 8.17735 16.103 8.04228L16.0682 1.98636L22.8 5.11333V12.033C22.8007 12.086 22.8012 12.1393 22.8 12.1924V16.4879C23.1518 16.7543 23.4696 17.0639 23.7334 17.4203C23.8294 17.5489 23.9172 17.6819 24 17.8177V4.73053C24 4.61617 23.9673 4.5042 23.9058 4.40781C23.8442 4.31141 23.7564 4.23461 23.6527 4.18644L16.0529 0.656045C15.9719 0.618377 15.8835 0.599273 15.7942 0.600125C15.7087 0.600875 15.6245 0.619859 15.547 0.655805L8.19984 4.06884L0.85272 0.656045C0.775242 0.620016 0.690962 0.600951 0.60552 0.600125ZM7.80504 15.5317L7.806 15.6421C7.83144 15.6325 7.85592 15.6198 7.8816 15.6104C7.85496 15.5852 7.8312 15.5576 7.80504 15.5317Z" fill="white"/>
<path d="M18.2402 8.4646C16.2518 8.4646 14.6402 10.0764 14.6402 12.0646C14.6402 14.0528 16.2518 15.6646 18.2402 15.6646C20.2281 15.6646 21.8402 14.0528 21.8402 12.0646C21.8402 10.0764 20.2281 8.4646 18.2402 8.4646ZM18.2402 16.1981C14.2634 16.1981 12.4802 17.9816 12.4802 21.9581V22.4381C12.4982 23.3837 12.9163 23.4116 13.8002 23.3981H22.6802C23.807 23.3972 24.0079 23.3993 24.0002 22.4381V21.9581C24.0002 17.9816 22.2165 16.1981 18.2402 16.1981ZM10.5602 9.81364C8.9313 9.81364 7.61034 11.1346 7.61034 12.7637C7.61034 14.3926 8.9313 15.7131 10.5602 15.7131C12.1891 15.7131 13.5098 14.3926 13.5098 12.7635C13.5098 11.1346 12.1891 9.81364 10.5602 9.81364ZM10.5602 16.1499C7.30218 16.1499 5.84082 17.6115 5.84082 20.8692V21.2626C5.8557 22.0373 6.19818 22.0601 6.92226 22.0491H11.5118C11.3947 20.108 11.968 18.0464 13.396 16.7357C12.6731 16.3407 11.734 16.1499 10.5602 16.1499Z" fill="white"/>
</svg>
