<svg width="21" height="17" viewBox="0 0 21 17" fill="none" xmlns="http://www.w3.org/2000/svg">
<path d="M10.2216 4.65082L3.50028 10.0746V15.9285C3.50028 16.0801 3.56173 16.2254 3.67112 16.3326C3.78051 16.4398 3.92887 16.5 4.08356 16.5L8.16877 16.4896C8.32296 16.4889 8.47058 16.4283 8.57933 16.3212C8.68809 16.2142 8.74914 16.0692 8.74914 15.9181V12.4996C8.74914 12.348 8.8106 12.2026 8.91998 12.0954C9.02937 11.9883 9.17773 11.9281 9.33243 11.9281H11.6656C11.8203 11.9281 11.9686 11.9883 12.078 12.0954C12.1874 12.2026 12.2489 12.348 12.2489 12.4996V15.9156C12.2486 15.9908 12.2635 16.0654 12.2927 16.1349C12.322 16.2044 12.3649 16.2677 12.4191 16.3209C12.4733 16.3742 12.5376 16.4164 12.6085 16.4453C12.6794 16.4741 12.7554 16.4889 12.8322 16.4889L16.9159 16.5C17.0706 16.5 17.219 16.4398 17.3284 16.3326C17.4377 16.2254 17.4992 16.0801 17.4992 15.9285V10.0707L10.7794 4.65082C10.7004 4.58843 10.6019 4.55441 10.5005 4.55441C10.399 4.55441 10.3006 4.58843 10.2216 4.65082V4.65082ZM20.8385 8.3373L17.7908 5.87596V0.928619C17.7908 0.814942 17.7448 0.705921 17.6627 0.62554C17.5807 0.545158 17.4694 0.5 17.3534 0.5H15.3119C15.1958 0.5 15.0846 0.545158 15.0025 0.62554C14.9205 0.705921 14.8744 0.814942 14.8744 0.928619V3.52212L11.6105 0.891115C11.2973 0.638579 10.9043 0.500505 10.4986 0.500505C10.093 0.500505 9.69997 0.638579 9.38675 0.891115L0.158763 8.3373C0.114465 8.37318 0.0778157 8.41725 0.0509086 8.467C0.0240015 8.51676 0.00736429 8.57122 0.00194751 8.62728C-0.00346927 8.68334 0.00244057 8.73989 0.0193394 8.79371C0.0362382 8.84753 0.0637947 8.89756 0.100435 8.94094L1.03005 10.0482C1.06659 10.0917 1.11153 10.1278 1.16231 10.1543C1.21309 10.1808 1.2687 10.1972 1.32596 10.2026C1.38322 10.208 1.441 10.2023 1.49601 10.1858C1.55102 10.1693 1.60216 10.1423 1.64651 10.1064L10.2216 3.18637C10.3006 3.12398 10.399 3.08996 10.5005 3.08996C10.6019 3.08996 10.7004 3.12398 10.7794 3.18637L19.3548 10.1064C19.3991 10.1423 19.4501 10.1693 19.5051 10.1859C19.56 10.2024 19.6177 10.2082 19.6749 10.2029C19.7321 10.1976 19.7877 10.1813 19.8385 10.155C19.8893 10.1286 19.9343 10.0927 19.9709 10.0493L20.9005 8.94201C20.9371 8.89838 20.9645 8.84809 20.9812 8.79404C20.9979 8.73998 21.0036 8.68323 20.9978 8.62704C20.9921 8.57084 20.975 8.51632 20.9477 8.46659C20.9203 8.41687 20.8832 8.37293 20.8385 8.3373V8.3373Z" fill="white"/>
</svg>
