<svg width="19" height="21" viewBox="0 0 19 21" fill="none" xmlns="http://www.w3.org/2000/svg">
<path fill-rule="evenodd" clip-rule="evenodd" d="M4.79941 0.0512406C4.7373 0.0776474 4.62296 0.169462 4.54532 0.25524C4.40433 0.411011 4.40416 0.413042 4.387 1.75416C4.37757 2.49274 4.38338 3.15262 4.39998 3.22046C4.44453 3.40299 4.70206 3.64314 4.91928 3.70478C5.17754 3.77808 5.44529 3.69375 5.64958 3.47478L5.81575 3.29661L5.83275 1.93924C5.85166 0.428944 5.83212 0.325058 5.48832 0.109626C5.30199 -0.0072027 4.99754 -0.0329709 4.79941 0.0512406ZM13.5849 0.0692899C13.5103 0.108697 13.3959 0.214614 13.3308 0.304629C13.2209 0.456686 13.2112 0.555813 13.1949 1.69751C13.1749 3.09377 13.1901 3.23323 13.3877 3.47466C13.6814 3.83333 14.2158 3.80919 14.4667 3.42597C14.5919 3.2348 14.5958 3.18825 14.5958 1.89676C14.5958 0.430918 14.568 0.280951 14.2616 0.0948843C14.0706 -0.0210154 13.7769 -0.0321586 13.5849 0.0692899ZM1.4584 1.61708C0.841646 1.84528 0.381186 2.30592 0.12902 2.94687L0 3.27496V11.255V19.2351L0.131842 19.5708C0.316422 20.0409 0.785522 20.5463 1.26027 20.7865L1.63502 20.9762L9.34354 20.9934C16.3681 21.0091 17.0832 21.0021 17.4042 20.9146C18.1359 20.7152 18.7354 20.0598 18.9107 19.2677C18.9897 18.9106 19 17.9865 19 11.266C19 6.42009 18.9794 3.55481 18.9433 3.3554C18.8095 2.61908 18.3486 1.99536 17.7112 1.68823C17.4072 1.54174 17.3382 1.53286 16.3603 1.51476L15.3299 1.4956L15.3293 2.41433C15.3288 3.25412 15.3174 3.35795 15.1971 3.62358C14.9555 4.15689 14.4765 4.47632 13.9183 4.47632C13.3584 4.47632 12.8871 4.18857 12.6337 3.69213C12.4879 3.40664 12.479 3.34211 12.4602 2.44793L12.4405 1.50483H9.50926H6.57801V2.42205C6.57801 3.29144 6.57044 3.35487 6.43245 3.63943C5.88864 4.76117 4.28621 4.75281 3.77555 3.62556C3.65421 3.35778 3.64297 3.25563 3.64247 2.41891L3.6419 1.50483L2.69614 1.50692C1.91965 1.50866 1.69814 1.52834 1.4584 1.61708ZM1.49629 12.8628C1.49629 19.0151 1.49629 19.0164 1.61418 19.1704C1.8777 19.5147 1.50842 19.4963 8.12793 19.4963H14.2006V18.204C14.2006 16.7082 14.227 16.602 14.6543 16.3768C14.8908 16.2522 14.9634 16.2462 16.2453 16.2462H17.5884V11.5162V6.78619L11.8715 6.78613C8.72718 6.78607 5.10645 6.76878 3.82541 6.74765L1.49629 6.70929V12.8628ZM8.85496 9.90109C8.52555 10.5979 8.24747 11.1782 8.23702 11.1908C8.22658 11.2034 7.59373 11.3063 6.83063 11.4196L5.44326 11.6255L6.44498 12.6563L7.4467 13.6871L7.21159 15.0941C7.08228 15.8679 6.9824 16.5071 6.98963 16.5146C6.99686 16.522 7.56002 16.2265 8.24103 15.8578L9.47928 15.1876L9.82139 15.366C10.0095 15.4641 10.5801 15.7706 11.0893 16.0472C11.8602 16.4659 12.0099 16.5295 11.984 16.4276C11.9668 16.3602 11.8564 15.7163 11.7385 14.9965L11.5242 13.688L12.5261 12.657L13.5281 11.6259L12.241 11.4352C11.5331 11.3302 10.8998 11.2317 10.8338 11.2162C10.7414 11.1945 10.5789 10.9001 10.1297 9.94026C9.80857 9.25397 9.52518 8.67941 9.49989 8.66333C9.47465 8.64731 9.18442 9.2043 8.85496 9.90109ZM16.2474 18.1657C15.5564 18.8684 14.9911 19.4553 14.9911 19.4699C14.9911 19.4844 15.415 19.4963 15.9331 19.4963C16.769 19.4963 16.9023 19.4828 17.1155 19.3767C17.5203 19.1753 17.5884 18.9516 17.5884 17.8239C17.5884 17.3073 17.5694 16.8854 17.5461 16.8863C17.5227 16.8873 16.9384 17.463 16.2474 18.1657Z" fill="#FFC300"/>
</svg>
