<svg width="21" height="21" viewBox="0 0 21 21" fill="none" xmlns="http://www.w3.org/2000/svg">
<path fill-rule="evenodd" clip-rule="evenodd" d="M8.58816 0.062552C4.83934 0.543553 1.69061 3.12408 0.508262 6.68445C-1.00652 11.2458 0.951616 16.1322 5.22311 18.4503L5.5629 18.6347V17.6765V16.7182L5.43361 16.6418C5.12731 16.4609 4.55282 16.0014 4.16918 15.6305C3.53361 15.0161 3.05422 14.3858 2.60604 13.5752L2.44241 13.2793H4.32798H6.2136L6.24271 13.4218C6.33316 13.8647 6.54037 14.7942 6.55155 14.8069C6.55874 14.8151 6.67094 14.7415 6.80089 14.6434C7.04287 14.4607 7.65117 14.1562 7.77415 14.1562C7.85785 14.1562 7.85776 14.1686 7.77704 13.7467C7.74087 13.5577 7.71128 13.3752 7.71128 13.3412C7.71128 13.2887 8.03274 13.2793 9.81664 13.2793H11.922L11.8996 13.3779C11.7358 14.0991 11.6634 14.0247 12.5295 14.0247C13.0816 14.0247 13.2754 14.0107 13.291 13.9698C13.3024 13.9397 13.3373 13.772 13.3685 13.5971L13.4251 13.2793H15.2823H17.1396L17.0446 13.4656C16.9923 13.5681 16.9043 13.7238 16.8489 13.8116C16.7935 13.8993 16.7602 13.9832 16.7749 13.9979C16.8098 14.0328 17.5551 14.0318 18.1758 13.996L18.6657 13.9678L18.806 13.6345C19.4407 12.1267 19.7007 10.4535 19.5465 8.8693C19.0938 4.21648 15.421 0.514702 10.7867 0.0401023C10.1865 -0.0213273 9.16042 -0.0108916 8.58816 0.062552ZM8.99539 1.68901L8.81072 1.70852L8.6588 2.19939C8.42704 2.94821 8.25797 3.54957 8.08944 4.22486C7.90117 4.97924 7.6484 6.21551 7.67668 6.24379C7.68813 6.25523 8.65446 6.25944 9.82405 6.25322L11.9506 6.24182L11.8095 5.53838C11.567 4.32965 10.896 1.85037 10.7787 1.72948C10.7381 1.68761 9.31449 1.65529 8.99539 1.68901ZM7.012 2.14809C6.61916 2.28349 5.80602 2.691 5.39748 2.95733C4.5818 3.48906 3.87897 4.14606 3.29764 4.92036C2.99143 5.32822 2.4938 6.1411 2.4938 6.23349C2.4938 6.2501 3.32759 6.26374 4.34662 6.26374H6.19944L6.3215 5.66084C6.4867 4.84503 6.78528 3.66791 7.04813 2.79632C7.16752 2.40034 7.262 2.07399 7.25806 2.07105C7.25416 2.06816 7.14341 2.10279 7.012 2.14809ZM12.5848 2.65733C12.8139 3.41588 13.1149 4.61238 13.2771 5.40872C13.3507 5.77046 13.4212 6.1108 13.4338 6.16508L13.4566 6.26374H15.2753C16.2756 6.26374 17.094 6.25094 17.094 6.23528C17.094 6.1707 16.6885 5.47239 16.4662 5.15393C15.6919 4.04517 14.6358 3.12956 13.4369 2.52763C13.077 2.34689 12.494 2.09828 12.4302 2.09828C12.4224 2.09828 12.4919 2.34983 12.5848 2.65733ZM1.86481 8.00666C1.71644 8.70996 1.68478 9.02579 1.6857 9.79342C1.68667 10.5631 1.72139 10.9083 1.86323 11.5583L1.93263 11.8761H3.97083H6.00906L5.98324 11.7117C5.83741 10.7821 5.83483 8.62643 5.9785 7.78742L5.99915 7.66684H3.96785H1.93649L1.86481 8.00666ZM7.43278 7.83346C7.41805 7.9255 7.38341 8.34494 7.35579 8.76556C7.30423 9.55081 7.32102 10.3349 7.41046 11.3171L7.46136 11.8761H9.79485H12.1283L12.1537 11.7117C12.2754 10.9216 12.2962 8.86299 12.1916 7.95185L12.1615 7.68877L9.8105 7.67741L7.45952 7.6661L7.43278 7.83346ZM13.6957 8.02858C13.7952 9.123 13.7891 10.7022 13.682 11.5802L13.646 11.8761H15.6505H17.6551L17.7245 11.5583C17.8664 10.9083 17.9011 10.5631 17.9021 9.79342C17.903 9.02579 17.8713 8.70996 17.723 8.00666L17.6513 7.66684H15.657H13.6628L13.6957 8.02858ZM15.8006 14.723C13.2499 14.752 13.3781 14.7384 12.8608 15.0344C12.3382 15.3334 11.8937 15.9511 11.7654 16.5565C11.7226 16.7583 11.7024 17.143 11.7019 17.7626L11.7011 18.6724H12.4026H13.1041V17.8254C13.1041 16.797 13.1432 16.6203 13.4291 16.3568C13.5407 16.2539 13.6843 16.1675 13.7688 16.1525C13.8494 16.1381 15.03 16.122 16.3925 16.1169C18.8557 16.1074 18.8706 16.1079 19.045 16.202C19.2491 16.3121 19.4223 16.4878 19.5223 16.6862C19.5814 16.8033 19.5929 16.992 19.5921 17.8262C19.5911 18.928 19.5678 19.0464 19.3027 19.2949C19.0295 19.5511 18.9334 19.5677 17.6311 19.5848C16.5201 19.5994 16.4363 19.606 16.4363 19.6787C16.4363 19.8473 16.1169 20.3853 15.8378 20.6868L15.5478 21L17.2964 20.9705C18.9639 20.9423 19.0603 20.9362 19.3739 20.8382C20.1288 20.6021 20.7324 19.9736 20.929 19.2187C21.0202 18.8682 21.0249 16.7894 20.9352 16.4524C20.7309 15.6854 20.0407 14.996 19.2778 14.7973C18.9202 14.7042 18.41 14.6933 15.8006 14.723ZM8.09031 14.7957C7.23451 15.0028 6.48473 15.7649 6.31225 16.6028C6.24999 16.9052 6.24999 18.8173 6.31225 19.1197C6.44461 19.7627 6.93826 20.3991 7.5402 20.7028C8.12306 20.9969 8.20176 21.0032 11.0856 20.9865C13.5947 20.972 13.6586 20.9695 13.9403 20.875C14.7007 20.62 15.2922 19.9867 15.4941 19.2116C15.5425 19.0259 15.5594 18.7077 15.5594 17.9836V17.0062H14.8579H14.1564L14.1554 17.938C14.1546 18.7494 14.144 18.8928 14.0734 19.0482C13.9706 19.2745 13.7181 19.484 13.474 19.5455C13.2089 19.6123 8.69826 19.6111 8.43256 19.5442C8.21461 19.4894 7.88227 19.2222 7.76459 19.0072C7.69953 18.8883 7.68936 18.7304 7.68936 17.8393C7.68936 16.7153 7.6951 16.6851 7.9593 16.4181C8.22838 16.1462 8.3144 16.1313 9.62377 16.1303L10.8128 16.1293L10.8686 15.93C10.949 15.6428 11.1863 15.2685 11.4721 14.9783L11.7203 14.7262L10.0337 14.7298C8.73838 14.7326 8.28748 14.7479 8.09031 14.7957Z" fill="#FFC300"/>
</svg>
