<svg width="13" height="19" viewBox="0 0 13 19" fill="none" xmlns="http://www.w3.org/2000/svg">
<path d="M5.2 8.82143C5.2 8.64146 5.26848 8.46886 5.39038 8.34161C5.51228 8.21435 5.67761 8.14286 5.85 8.14286H9.75C9.92239 8.14286 10.0877 8.21435 10.2096 8.34161C10.3315 8.46886 10.4 8.64146 10.4 8.82143C10.4 9.0014 10.3315 9.17399 10.2096 9.30125C10.0877 9.42851 9.92239 9.5 9.75 9.5H5.85C5.67761 9.5 5.51228 9.42851 5.39038 9.30125C5.26848 9.17399 5.2 9.0014 5.2 8.82143ZM5.2 12.8929C5.2 12.7129 5.26848 12.5403 5.39038 12.413C5.51228 12.2858 5.67761 12.2143 5.85 12.2143H9.75C9.92239 12.2143 10.0877 12.2858 10.2096 12.413C10.3315 12.5403 10.4 12.7129 10.4 12.8929C10.4 13.0728 10.3315 13.2454 10.2096 13.3727C10.0877 13.4999 9.92239 13.5714 9.75 13.5714H5.85C5.67761 13.5714 5.51228 13.4999 5.39038 13.3727C5.26848 13.2454 5.2 13.0728 5.2 12.8929ZM3.25 9.5C3.42239 9.5 3.58772 9.42851 3.70962 9.30125C3.83152 9.17399 3.9 9.0014 3.9 8.82143C3.9 8.64146 3.83152 8.46886 3.70962 8.34161C3.58772 8.21435 3.42239 8.14286 3.25 8.14286C3.07761 8.14286 2.91228 8.21435 2.79038 8.34161C2.66848 8.46886 2.6 8.64146 2.6 8.82143C2.6 9.0014 2.66848 9.17399 2.79038 9.30125C2.91228 9.42851 3.07761 9.5 3.25 9.5V9.5ZM3.25 13.5714C3.42239 13.5714 3.58772 13.4999 3.70962 13.3727C3.83152 13.2454 3.9 13.0728 3.9 12.8929C3.9 12.7129 3.83152 12.5403 3.70962 12.413C3.58772 12.2858 3.42239 12.2143 3.25 12.2143C3.07761 12.2143 2.91228 12.2858 2.79038 12.413C2.66848 12.5403 2.6 12.7129 2.6 12.8929C2.6 13.0728 2.66848 13.2454 2.79038 13.3727C2.91228 13.4999 3.07761 13.5714 3.25 13.5714V13.5714ZM2.7105 1.35714C2.84497 0.960073 3.09411 0.616317 3.42356 0.373253C3.75302 0.130188 4.14658 -0.000220509 4.55 2.79893e-07H8.45C8.85342 -0.000220509 9.24698 0.130188 9.57644 0.373253C9.90589 0.616317 10.155 0.960073 10.2895 1.35714H11.05C11.5672 1.35714 12.0632 1.57162 12.4289 1.95339C12.7946 2.33516 13 2.85295 13 3.39286V16.9643C13 17.5042 12.7946 18.022 12.4289 18.4038C12.0632 18.7855 11.5672 19 11.05 19H1.95C1.43283 19 0.936838 18.7855 0.571142 18.4038C0.205446 18.022 0 17.5042 0 16.9643V3.39286C0 2.85295 0.205446 2.33516 0.571142 1.95339C0.936838 1.57162 1.43283 1.35714 1.95 1.35714H2.7105ZM4.55 1.35714C4.37761 1.35714 4.21228 1.42864 4.09038 1.55589C3.96848 1.68315 3.9 1.85575 3.9 2.03571C3.9 2.21568 3.96848 2.38828 4.09038 2.51554C4.21228 2.64279 4.37761 2.71429 4.55 2.71429H8.45C8.62239 2.71429 8.78772 2.64279 8.90962 2.51554C9.03152 2.38828 9.1 2.21568 9.1 2.03571C9.1 1.85575 9.03152 1.68315 8.90962 1.55589C8.78772 1.42864 8.62239 1.35714 8.45 1.35714H4.55ZM2.7105 2.71429H1.95C1.77761 2.71429 1.61228 2.78578 1.49038 2.91304C1.36848 3.04029 1.3 3.21289 1.3 3.39286V16.9643C1.3 17.1443 1.36848 17.3169 1.49038 17.4441C1.61228 17.5714 1.77761 17.6429 1.95 17.6429H11.05C11.2224 17.6429 11.3877 17.5714 11.5096 17.4441C11.6315 17.3169 11.7 17.1443 11.7 16.9643V3.39286C11.7 3.21289 11.6315 3.04029 11.5096 2.91304C11.3877 2.78578 11.2224 2.71429 11.05 2.71429H10.2895C10.155 3.11136 9.90589 3.45511 9.57644 3.69818C9.24698 3.94124 8.85342 4.07165 8.45 4.07143H4.55C4.14658 4.07165 3.75302 3.94124 3.42356 3.69818C3.09411 3.45511 2.84497 3.11136 2.7105 2.71429V2.71429Z" fill="#FFC300"/>
</svg>
