<svg width="24" height="24" viewBox="0 0 24 24" fill="none" xmlns="http://www.w3.org/2000/svg">
<path d="M9.33268 2.66675H3.99935C3.26297 2.66675 2.66602 3.2637 2.66602 4.00008V9.33342C2.66602 10.0698 3.26297 10.6667 3.99935 10.6667H9.33268C10.0691 10.6667 10.666 10.0698 10.666 9.33342V4.00008C10.666 3.2637 10.0691 2.66675 9.33268 2.66675Z" fill="white"/>
<path d="M20.0007 2.66675H14.6673C13.9309 2.66675 13.334 3.2637 13.334 4.00008V9.33342C13.334 10.0698 13.9309 10.6667 14.6673 10.6667H20.0007C20.737 10.6667 21.334 10.0698 21.334 9.33342V4.00008C21.334 3.2637 20.737 2.66675 20.0007 2.66675Z" fill="white"/>
<path d="M9.33268 13.3333H3.99935C3.26297 13.3333 2.66602 13.9302 2.66602 14.6666V19.9999C2.66602 20.7363 3.26297 21.3333 3.99935 21.3333H9.33268C10.0691 21.3333 10.666 20.7363 10.666 19.9999V14.6666C10.666 13.9302 10.0691 13.3333 9.33268 13.3333Z" fill="white"/>
<path d="M20.0007 13.3333H14.6673C13.9309 13.3333 13.334 13.9302 13.334 14.6666V19.9999C13.334 20.7363 13.9309 21.3333 14.6673 21.3333H20.0007C20.737 21.3333 21.334 20.7363 21.334 19.9999V14.6666C21.334 13.9302 20.737 13.3333 20.0007 13.3333Z" fill="white"/>
</svg>
