<svg width="24" height="24" viewBox="0 0 24 24" fill="none" xmlns="http://www.w3.org/2000/svg">
<path fill-rule="evenodd" clip-rule="evenodd" d="M12.5751 1H11.3521V3.54833C11.0359 3.6604 10.7565 3.85685 10.5442 4.11637C10.3318 4.3759 10.1946 4.68858 10.1475 5.0205L5.68977 6.21522C5.55187 6.25247 5.43137 6.33679 5.34918 6.45356L1.76895 11.5221H1.03027C1.0299 12.014 1.09928 12.5035 1.23634 12.9759C1.81725 14.9657 3.55814 16.4104 5.61639 16.4104C7.75353 16.4104 9.54884 14.8521 10.0582 12.7437C10.1543 12.3442 10.2027 11.9348 10.2025 11.5239V11.5221H9.63078L6.81796 7.17833L10.3902 6.22072C10.61 6.58618 10.95 6.86398 11.3521 7.00661V20.5556H9.51765V21.7778H5.84876V23H18.0784V21.7778H14.4095V20.5556H12.5751V7.00722C12.9282 6.88231 13.2346 6.65242 13.4533 6.34841C13.6719 6.0444 13.7922 5.68083 13.798 5.3065L16.9411 4.46439L14.6987 7.72222H13.798C13.798 8.14389 13.8482 8.55333 13.9423 8.94444C14.4517 11.0528 16.2476 12.6111 18.3842 12.6111C20.4418 12.6111 22.1833 11.1664 22.7642 9.17605C22.9013 8.70423 22.9706 8.21536 22.9703 7.72406V7.72222H21.7803L18.91 3.13278C18.842 3.01797 18.7382 2.92858 18.6145 2.87827C18.4909 2.82795 18.3541 2.81946 18.2252 2.85411L13.4067 4.146C13.1917 3.87228 12.9033 3.66522 12.5751 3.54894V1ZM16.1834 7.72222H20.3385L18.3597 4.5585L16.1834 7.72222ZM8.17423 11.5221L5.82675 7.89639L3.26586 11.5221H8.17423Z" fill="white"/>
</svg>
