<svg width="24" height="24" viewBox="0 0 24 24" fill="none" xmlns="http://www.w3.org/2000/svg">
<path d="M5.99961 3.6001C5.36309 3.6001 4.75264 3.85295 4.30255 4.30304C3.85247 4.75313 3.59961 5.36358 3.59961 6.0001V18.0001C3.59961 18.6366 3.85247 19.2471 4.30255 19.6972C4.75264 20.1472 5.36309 20.4001 5.99961 20.4001H11.0636L11.318 19.3861C11.486 18.7116 11.8345 18.0956 12.326 17.6041L13.13 16.8001H11.3996C11.2405 16.8001 11.0879 16.7369 10.9753 16.6244C10.8628 16.5118 10.7996 16.3592 10.7996 16.2001C10.7996 16.041 10.8628 15.8884 10.9753 15.7758C11.0879 15.6633 11.2405 15.6001 11.3996 15.6001H14.3312L18.122 11.8081C18.729 11.2005 19.5416 10.8426 20.3996 10.8049V6.0001C20.3996 5.36358 20.1468 4.75313 19.6967 4.30304C19.2466 3.85295 18.6361 3.6001 17.9996 3.6001H5.99961ZM8.99961 8.7001C8.99961 8.93879 8.90479 9.16771 8.73601 9.33649C8.56722 9.50528 8.3383 9.6001 8.09961 9.6001C7.86091 9.6001 7.632 9.50528 7.46321 9.33649C7.29443 9.16771 7.19961 8.93879 7.19961 8.7001C7.19961 8.4614 7.29443 8.23248 7.46321 8.0637C7.632 7.89492 7.86091 7.8001 8.09961 7.8001C8.3383 7.8001 8.56722 7.89492 8.73601 8.0637C8.90479 8.23248 8.99961 8.4614 8.99961 8.7001ZM8.09961 13.2001C7.86091 13.2001 7.632 13.1053 7.46321 12.9365C7.29443 12.7677 7.19961 12.5388 7.19961 12.3001C7.19961 12.0614 7.29443 11.8325 7.46321 11.6637C7.632 11.4949 7.86091 11.4001 8.09961 11.4001C8.3383 11.4001 8.56722 11.4949 8.73601 11.6637C8.90479 11.8325 8.99961 12.0614 8.99961 12.3001C8.99961 12.5388 8.90479 12.7677 8.73601 12.9365C8.56722 13.1053 8.3383 13.2001 8.09961 13.2001ZM8.99961 15.9001C8.99961 16.1388 8.90479 16.3677 8.73601 16.5365C8.56722 16.7053 8.3383 16.8001 8.09961 16.8001C7.86091 16.8001 7.632 16.7053 7.46321 16.5365C7.29443 16.3677 7.19961 16.1388 7.19961 15.9001C7.19961 15.6614 7.29443 15.4325 7.46321 15.2637C7.632 15.0949 7.86091 15.0001 8.09961 15.0001C8.3383 15.0001 8.56722 15.0949 8.73601 15.2637C8.90479 15.4325 8.99961 15.6614 8.99961 15.9001ZM11.3996 8.4001H16.1996C16.3587 8.4001 16.5114 8.46331 16.6239 8.57583C16.7364 8.68836 16.7996 8.84097 16.7996 9.0001C16.7996 9.15923 16.7364 9.31184 16.6239 9.42436C16.5114 9.53688 16.3587 9.6001 16.1996 9.6001H11.3996C11.2405 9.6001 11.0879 9.53688 10.9753 9.42436C10.8628 9.31184 10.7996 9.15923 10.7996 9.0001C10.7996 8.84097 10.8628 8.68836 10.9753 8.57583C11.0879 8.46331 11.2405 8.4001 11.3996 8.4001ZM10.7996 12.6001C10.7996 12.441 10.8628 12.2884 10.9753 12.1758C11.0879 12.0633 11.2405 12.0001 11.3996 12.0001H16.1996C16.3587 12.0001 16.5114 12.0633 16.6239 12.1758C16.7364 12.2884 16.7996 12.441 16.7996 12.6001C16.7996 12.7592 16.7364 12.9118 16.6239 13.0244C16.5114 13.1369 16.3587 13.2001 16.1996 13.2001H11.3996C11.2405 13.2001 11.0879 13.1369 10.9753 13.0244C10.8628 12.9118 10.7996 12.7592 10.7996 12.6001ZM13.1756 18.4525L18.9716 12.6565C19.1801 12.4482 19.4276 12.2829 19.6999 12.1703C19.9723 12.0576 20.2641 11.9996 20.5589 11.9997C20.8536 11.9999 21.1454 12.058 21.4177 12.1709C21.6899 12.2838 21.9373 12.4492 22.1456 12.6577C22.3539 12.8662 22.5192 13.1137 22.6319 13.386C22.7445 13.6583 22.8025 13.9502 22.8024 14.2449C22.8023 14.5397 22.7441 14.8315 22.6312 15.1038C22.5183 15.376 22.3529 15.6234 22.1444 15.8317L16.3484 21.6265C16.0108 21.9643 15.5877 22.204 15.1244 22.3201L13.3268 22.7689C13.1481 22.8134 12.9608 22.811 12.7833 22.7618C12.6058 22.7126 12.444 22.6183 12.3137 22.4881C12.1834 22.3579 12.089 22.1963 12.0396 22.0188C11.9903 21.8413 11.9876 21.6541 12.032 21.4753L12.482 19.6777C12.5971 19.214 12.837 18.7907 13.1756 18.4537V18.4525Z" fill="white"/>
</svg>
