<svg width="21" height="20" viewBox="0 0 21 20" fill="none" xmlns="http://www.w3.org/2000/svg">
<path fill-rule="evenodd" clip-rule="evenodd" d="M12.6519 0.0431135C15.565 0.414582 18.1823 2.35297 19.3976 5.03882C19.7585 5.83643 20.0344 6.84447 20.1015 7.61112L20.1308 7.94528L20.3616 7.96434C20.8622 8.00566 21.1369 8.43806 20.9312 8.86098C20.819 9.0917 20.6275 9.21962 20.3443 9.25298L20.1367 9.27745L20.0858 9.67806C19.8963 11.171 19.3099 12.6017 18.414 13.7565C16.8598 15.7599 14.5651 16.9874 12.0965 17.1359C10.0919 17.2564 8.23229 16.7594 6.63865 15.6771L6.24014 15.4065L4.42614 17.1822C3.42843 18.1588 2.42063 19.1511 2.18661 19.3874C1.64523 19.934 1.52635 19.9998 1.08036 20C0.696108 20.0001 0.558252 19.9461 0.319897 19.7019C0.0199743 19.3945 -0.0743133 18.9874 0.0593733 18.5767C0.128642 18.3638 0.271646 18.2115 2.39948 16.0847L4.66577 13.8193L4.46035 13.5451C4.03087 12.9716 3.58922 12.1185 3.33967 11.38L3.23394 11.0671L2.95955 11.0393C2.64124 11.007 2.5553 10.9686 2.40565 10.7916C2.27924 10.6421 2.22904 10.4318 2.26903 10.2196C2.30737 10.0161 2.54764 9.78353 2.75327 9.7508L2.91355 9.72531L2.89615 8.82952C2.88283 8.14395 2.8953 7.81953 2.94933 7.44683C3.12816 6.21327 3.52893 5.09476 4.15022 4.09523C5.53529 1.86696 7.75503 0.418012 10.3315 0.0603892C10.8512 -0.011762 12.1463 -0.0214161 12.6519 0.0431135ZM12.2705 1.37478C13.5515 1.55469 14.6087 1.94047 15.5485 2.57107C17.31 3.75285 18.4635 5.62823 18.6947 7.68627C18.7207 7.91729 18.7152 7.94935 18.6458 7.96849C18.6029 7.98038 18.0165 7.99647 17.3428 8.00426L16.1178 8.01845L15.1269 5.68962C14.5818 4.40877 14.1098 3.31935 14.0779 3.26871C13.973 3.10234 13.7118 2.98861 13.4845 3.01033C13.2212 3.03553 13.0389 3.16734 12.9554 3.39311C12.9189 3.49176 12.5906 5.27751 12.2259 7.36142C11.8612 9.44534 11.5554 11.1578 11.5462 11.1669C11.5371 11.176 11.4838 11.0811 11.4279 10.9559C9.78262 7.27399 9.69931 7.11495 9.40982 7.10339C9.07969 7.09026 8.90392 7.16178 8.74815 7.37269C8.6922 7.4484 8.38053 8.001 8.05551 8.60066L7.46455 9.69097H5.92426H4.38398L4.349 9.4475C4.2959 9.07781 4.31032 7.84756 4.37198 7.48917C4.45758 6.99156 4.6568 6.27585 4.82571 5.85899C5.74369 3.59364 7.73478 1.95347 10.1483 1.47458C10.4946 1.40586 10.804 1.37948 11.377 1.36978C11.7983 1.36267 12.2003 1.36491 12.2705 1.37478ZM14.4987 7.549C14.8673 8.42083 15.1903 9.12693 15.2422 9.17389C15.449 9.36108 15.4809 9.36464 16.6925 9.33601C17.326 9.32102 18.0428 9.2971 18.2852 9.28279L18.7261 9.25679L18.6962 9.48447C18.4807 11.1294 17.7452 12.5742 16.5198 13.7599C15.71 14.5433 14.8945 15.0452 13.847 15.4047C12.9877 15.6995 12.5415 15.7675 11.4834 15.7646C10.702 15.7625 10.5035 15.7483 10.1219 15.6669C7.79179 15.1704 5.94226 13.7116 4.92345 11.5666C4.81056 11.329 4.71823 11.1147 4.71823 11.0903C4.71823 11.0601 5.23405 11.0456 6.32443 11.045C7.8163 11.0441 7.94343 11.0383 8.11056 10.9628C8.31411 10.8708 8.31088 10.8755 8.82759 9.92707C9.03628 9.54391 9.2189 9.24358 9.23333 9.25959C9.24775 9.27559 9.70553 10.2855 10.2506 11.5039C10.7956 12.7223 11.2785 13.7658 11.3237 13.823C11.5934 14.1643 12.1622 14.1167 12.3812 13.7345C12.4276 13.6534 12.6974 12.2352 13.1281 9.8075C13.4989 7.71744 13.8123 6.00736 13.8246 6.00728C13.8369 6.00723 14.1402 6.70101 14.4987 7.549Z" fill="white"/>
</svg>
