<svg width="20" height="22" viewBox="0 0 20 22" fill="none" xmlns="http://www.w3.org/2000/svg">
<path fill-rule="evenodd" clip-rule="evenodd" d="M5.05201 0.0536807C4.98663 0.0813449 4.86627 0.177531 4.78455 0.267395C4.63614 0.430583 4.63596 0.432711 4.61789 1.83769C4.60796 2.61144 4.61409 3.30274 4.63156 3.37382C4.67845 3.56503 4.94954 3.81663 5.17819 3.8812C5.45004 3.95799 5.73189 3.86964 5.94692 3.64024L6.12184 3.45359L6.13973 2.03158C6.15964 0.44937 6.13908 0.340537 5.77718 0.114846C5.58104 -0.00754569 5.26056 -0.0345409 5.05201 0.0536807ZM14.2999 0.0725894C14.2213 0.113873 14.101 0.224834 14.0325 0.319136C13.9167 0.478433 13.9066 0.58228 13.8894 1.77835C13.8684 3.24109 13.8843 3.38719 14.0924 3.64012C14.4014 4.01587 14.964 3.99058 15.2281 3.58911C15.3599 3.38883 15.364 3.34007 15.364 1.98708C15.364 0.451438 15.3347 0.294329 15.0122 0.0994026C14.8112 -0.0220161 14.5021 -0.0336899 14.2999 0.0725894ZM1.53516 1.69408C0.885944 1.93315 0.401248 2.41572 0.13581 3.0872L0 3.43091V11.791V20.1511L0.138782 20.5028C0.333076 20.9953 0.826865 21.5247 1.3266 21.7764L1.72107 21.9751L9.83531 21.9931C17.2296 22.0095 17.9823 22.0022 18.3202 21.9106C19.0905 21.7016 19.7214 21.015 19.906 20.1852C19.9891 19.8111 20 18.843 20 11.8025C20 6.72581 19.9784 3.72409 19.9403 3.51518C19.7995 2.7438 19.3144 2.09038 18.6434 1.76862C18.3233 1.61516 18.2508 1.60586 17.2214 1.58689L16.1367 1.56682L16.1361 2.5293C16.1356 3.40908 16.1236 3.51785 15.997 3.79614C15.7426 4.35483 15.2384 4.68948 14.6508 4.68948C14.0615 4.68948 13.5653 4.38803 13.2986 3.86794C13.1452 3.56886 13.1358 3.50125 13.116 2.5645L13.0953 1.57649H10.0097H6.92422V2.53738C6.92422 3.44817 6.91626 3.51463 6.771 3.81273C6.19857 4.98789 4.5118 4.97913 3.97426 3.7982C3.84654 3.51767 3.83471 3.41066 3.83417 2.5341L3.83358 1.57649L2.83804 1.57868C2.02068 1.5805 1.78752 1.60112 1.53516 1.69408ZM1.57504 13.4753C1.57504 19.9206 1.57504 19.9219 1.69914 20.0833C1.97652 20.444 1.58782 20.4247 8.55572 20.4247H14.948V19.0709C14.948 17.5039 14.9758 17.3926 15.4256 17.1566C15.6745 17.0261 15.751 17.0198 17.1003 17.0198H18.5141V12.0646V7.10934L12.4963 7.10928C9.18651 7.10922 5.37522 7.0911 4.02675 7.06897L1.57504 7.02878V13.4753ZM9.32101 10.3726C8.97426 11.1025 8.68155 11.7105 8.67055 11.7237C8.65955 11.7369 7.9934 11.8447 7.19013 11.9634L5.72975 12.1791L6.78419 13.259L7.83863 14.3389L7.59114 15.8128C7.45504 16.6235 7.3499 17.2931 7.3575 17.301C7.36511 17.3088 7.95792 16.9992 8.67477 16.613L9.97819 15.9108L10.3383 16.0977C10.5363 16.2005 11.1369 16.5216 11.6729 16.8113C12.4844 17.25 12.642 17.3167 12.6147 17.2098C12.5967 17.1392 12.4804 16.4647 12.3563 15.7107L12.1308 14.3398L13.1854 13.2597L14.2401 12.1796L12.8852 11.9797C12.1401 11.8698 11.4735 11.7665 11.404 11.7503C11.3067 11.7276 11.1357 11.4191 10.6629 10.4136C10.3248 9.69464 10.0265 9.09271 9.99988 9.07587C9.97331 9.05909 9.66782 9.6426 9.32101 10.3726ZM17.1025 19.0307C16.3752 19.7669 15.7801 20.3817 15.7801 20.397C15.7801 20.4122 16.2263 20.4247 16.7717 20.4247C17.6515 20.4247 17.7919 20.4106 18.0163 20.2994C18.4424 20.0884 18.5141 19.854 18.5141 18.6726C18.5141 18.1314 18.4941 17.6894 18.4695 17.6905C18.445 17.6914 17.8299 18.2946 17.1025 19.0307Z" fill="white"/>
</svg>
