<svg width="16" height="21" viewBox="0 0 16 21" fill="none" xmlns="http://www.w3.org/2000/svg">
<path fill-rule="evenodd" clip-rule="evenodd" d="M1.23721 21H14.7342C15.1713 20.7002 15.4208 20.6916 15.7267 20.1823C15.9965 19.7328 15.9797 19.1559 15.9778 18.5734C15.9722 16.8335 16.0736 7.89494 15.8847 7.45737C15.5607 6.70694 13.7602 7.00268 12.8904 7.00332C11.5218 7.00429 11.032 7.05248 10.2444 6.1611C9.30861 5.10215 9.57761 3.30346 9.58345 1.30451C9.58639 0.294231 9.53388 0.424838 8.99063 0H1.23721C0.736345 0.34344 0.0799193 0.53345 0 1.67589L0.00699798 19.414C0.113171 20.4871 0.783013 20.6885 1.23721 21V21ZM3.66002 15.8295C2.93829 16.1881 3.01687 17.3861 3.95206 17.4994C4.72348 17.593 12.0882 17.5119 12.2811 17.438C13.0255 17.1527 12.9591 15.8769 12.0417 15.7499C11.3155 15.6494 3.87593 15.7222 3.66002 15.8295V15.8295ZM3.77096 12.2927C2.90348 12.5886 3.05137 13.8285 3.8622 13.9804C4.40064 14.0814 12.0958 13.9979 12.2441 13.9445C12.9786 13.6805 12.9409 12.4032 12.1049 12.259C11.5322 12.1602 3.9213 12.2414 3.77096 12.2927V12.2927ZM3.66269 8.83137C2.93731 9.18047 3.01465 10.3854 3.9558 10.5045C4.70802 10.5998 12.0835 10.5172 12.2817 10.4404C13.024 10.1529 12.9547 8.87415 12.0413 8.75456C11.2888 8.656 3.88386 8.72491 3.66269 8.83137V8.83137Z" fill="white"/>
<path fill-rule="evenodd" clip-rule="evenodd" d="M12.1634 0H11.7462C11.0572 0.533596 11.1795 0.75316 11.1808 1.95998C11.182 3.14564 10.9299 5.15707 12.8009 5.23969C13.4484 5.26831 14.5695 5.29241 15.1969 5.23632C15.9405 5.1699 16.2584 4.34197 15.7416 3.78526L12.7866 0.580074C12.4402 0.179621 12.6272 0.314178 12.1634 0V0Z" fill="white"/>
</svg>
