<svg width="35" height="35" viewBox="0 0 35 35" fill="none" xmlns="http://www.w3.org/2000/svg">
<ellipse cx="17.5" cy="17.5" rx="17.5" ry="17.5" transform="rotate(-180 17.5 17.5)" fill="#0122E3"/>
<path d="M18.4663 9.44726C18.3185 9.58811 18.2012 9.75542 18.1212 9.9396C18.0412 10.1238 18 10.3212 18 10.5206C18 10.72 18.0412 10.9175 18.1212 11.1017C18.2012 11.2858 18.3185 11.4531 18.4663 11.594L24.6532 17.5013L18.4663 23.4087C18.1682 23.6933 18.0007 24.0794 18.0007 24.482C18.0007 24.8846 18.1682 25.2707 18.4663 25.5554C18.7645 25.8401 19.1688 26 19.5905 26C20.0121 26 20.4165 25.8401 20.7146 25.5554L28.0337 18.5671C28.1815 18.4262 28.2988 18.2589 28.3788 18.0747C28.4588 17.8906 28.5 17.6931 28.5 17.4937C28.5 17.2943 28.4588 17.0969 28.3788 16.9127C28.2988 16.7285 28.1815 16.5612 28.0337 16.4203L20.7146 9.43203C20.1087 8.85348 19.0882 8.85348 18.4663 9.44726Z" fill="white"/>
</svg>
