<svg width="16" height="35" viewBox="0 0 16 35" fill="none" xmlns="http://www.w3.org/2000/svg">
<circle cx="17.5" cy="17.5" r="17.5" fill="#DDE0F3"/>
<path d="M15.5559 25.5527C15.6967 25.4119 15.8084 25.2446 15.8846 25.0604C15.9608 24.8762 16 24.6788 16 24.4794C16 24.28 15.9608 24.0825 15.8846 23.8983C15.8084 23.7142 15.6967 23.5469 15.5559 23.406L9.66361 17.4987L15.5559 11.5913C15.8398 11.3067 15.9994 10.9206 15.9994 10.518C15.9994 10.1154 15.8398 9.72927 15.5559 9.4446C15.2719 9.15993 14.8868 9 14.4853 9C14.0837 9 13.6986 9.15993 13.4146 9.4446L6.44411 16.4329C6.30333 16.5738 6.19164 16.7411 6.11543 16.9253C6.03922 17.1094 6 17.3069 6 17.5063C6 17.7057 6.03922 17.9031 6.11543 18.0873C6.19164 18.2715 6.30333 18.4388 6.44411 18.5797L13.4146 25.568C13.9917 26.1465 14.9636 26.1465 15.5559 25.5527Z" fill="#0122E3"/>
</svg>
