<svg width="22" height="20" viewBox="0 0 22 20" fill="none" xmlns="http://www.w3.org/2000/svg">
<path d="M10.29 17.2549H3C2.46957 17.2549 1.96077 17.0442 1.58569 16.6691C1.21062 16.294 1 15.7853 1 15.2549V3.25488C1 2.72445 1.21062 2.21574 1.58569 1.84067C1.96077 1.46559 2.46957 1.25488 3 1.25488H19C19.5304 1.25488 20.039 1.46559 20.4141 1.84067C20.7891 2.21574 21 2.72445 21 3.25488V9.50488" stroke="white" stroke-width="2" stroke-miterlimit="10"/>
<path d="M1 7.25488H21.01" stroke="white" stroke-width="2" stroke-miterlimit="10"/>
<path d="M4 4.25488H6" stroke="white" stroke-width="2" stroke-miterlimit="10"/>
<path d="M7 4.25488H9" stroke="white" stroke-width="2" stroke-miterlimit="10"/>
<path d="M10 4.25488H12" stroke="white" stroke-width="2" stroke-miterlimit="10"/>
<path d="M19.3408 15.229L19.3401 15.242V15.2549C19.3401 15.2737 19.3393 15.2838 19.338 15.3019C19.3368 15.3178 19.3352 15.34 19.3332 15.3799C19.33 15.4433 19.3276 15.5421 19.3498 15.6529L19.3935 15.8716L19.5855 15.9852L20.849 16.7329L20.2203 17.8176L18.9646 17.0746L18.6817 16.9072L18.4159 17.1005C18.2766 17.2018 18.1268 17.2878 17.969 17.357L17.6699 17.4883V17.8149V19.2449H16.3999V17.8149V17.484L16.0953 17.3547C15.9403 17.2888 15.7937 17.2047 15.6587 17.104L15.3918 16.905L15.1052 17.0746L13.8479 17.8186L13.2133 16.733L14.4835 15.9858L14.73 15.8409V15.5549V15.5543V15.5537V15.5531V15.5525V15.552V15.5514V15.5508V15.5502V15.5496V15.549V15.5484V15.5479V15.5473V15.5467V15.5461V15.5455V15.5449V15.5443V15.5438V15.5432V15.5426V15.542V15.5414V15.5408V15.5402V15.5397V15.5391V15.5385V15.5379V15.5373V15.5367V15.5361V15.5356V15.535V15.5344V15.5338V15.5332V15.5326V15.532V15.5314V15.5309V15.5303V15.5297V15.5291V15.5285V15.5279V15.5273V15.5268V15.5262V15.5256V15.525V15.5244V15.5238V15.5232V15.5227V15.5221V15.5215V15.5209V15.5203V15.5197V15.5191V15.5186V15.518V15.5174V15.5168V15.5162V15.5156V15.515V15.5145V15.5139V15.5133V15.5127V15.5121V15.5115V15.5109V15.5104V15.5098V15.5092V15.5086V15.508V15.5074V15.5068V15.5063V15.5057V15.5051V15.5045V15.5039V15.5033V15.5027V15.5022V15.5016V15.501V15.5004V15.4998V15.4992V15.4986V15.498V15.4975V15.4969V15.4963V15.4957V15.4951V15.4945V15.4939V15.4934V15.4928V15.4922V15.4916V15.491V15.4904V15.4898V15.4893V15.4887V15.4881V15.4875V15.4869V15.4863V15.4857V15.4852V15.4846V15.484V15.4834V15.4828V15.4822V15.4816V15.4811V15.4805V15.4799V15.4793V15.4787V15.4781V15.4775V15.477V15.4764V15.4758V15.4752V15.4746V15.474V15.4734V15.4729V15.4723V15.4717V15.4711V15.4705V15.4699V15.4693V15.4688V15.4682V15.4676V15.467V15.4664V15.4658V15.4652V15.4647V15.4641V15.4635V15.4629V15.4623V15.4617V15.4611V15.4605V15.46V15.4594V15.4588V15.4582V15.4576V15.457V15.4564V15.4559V15.4553V15.4547V15.4541V15.4535V15.4529V15.4523V15.4518V15.4512V15.4506V15.45V15.4494V15.4488V15.4482V15.4477V15.4471V15.4465V15.4459V15.4453V15.4447V15.4441V15.4436V15.443V15.4424V15.4418V15.4412V15.4406V15.44V15.4395V15.4389V15.4383V15.4377V15.4371V15.4365V15.4359V15.4354V15.4348V15.4342V15.4336V15.433V15.4324V15.4318V15.4313V15.4307V15.4301V15.4295V15.4289V15.4283V15.4277V15.4272V15.4266V15.426V15.4254V15.4248V15.4242V15.4236V15.423V15.4225V15.4219V15.4213V15.4207V15.4201V15.4195V15.4189V15.4184V15.4178V15.4172V15.4166V15.416V15.4154V15.4148V15.4143V15.4137V15.4131V15.4125V15.4119V15.4113V15.4107V15.4102V15.4096V15.409V15.4084V15.4078V15.4072V15.4066V15.4061V15.4055V15.4049V15.4043V15.4037V15.4031V15.4025V15.402V15.4014V15.4008V15.4002V15.3996V15.399V15.3984V15.3979V15.3973V15.3967V15.3961V15.3955V15.3949V15.3943V15.3938V15.3932V15.3926V15.392V15.3914V15.3908V15.3902V15.3896V15.3891V15.3885V15.3879V15.3873V15.3867V15.3861V15.3855V15.385V15.3844V15.3838V15.3832V15.3826V15.382V15.3814V15.3809V15.3803V15.3797V15.3791V15.3785V15.3779V15.3773V15.3768V15.3762V15.3756V15.375V15.3744V15.3738V15.3732V15.3727V15.3721V15.3715V15.3709V15.3703V15.3697V15.3691V15.3686V15.368V15.3674V15.3668V15.3662V15.3656V15.365V15.3645V15.3639V15.3633V15.3627V15.3621V15.3615V15.3609V15.3604V15.3598V15.3592V15.3586V15.358V15.3574V15.3568V15.3563V15.3557V15.3551V15.3545V15.3539V15.3533V15.3527V15.3521V15.3516V15.351V15.3504V15.3498V15.3492V15.3486V15.348V15.3475V15.3469V15.3463V15.3457V15.3451V15.3445V15.3439V15.3434V15.3428V15.3422V15.3416V15.341V15.3404V15.3398V15.3393V15.3387V15.3381V15.3375V15.3369V15.3363V15.3357V15.3352V15.3346V15.334V15.3334V15.3328V15.3322V15.3316V15.3311V15.3305V15.3299V15.3293V15.3287V15.3281V15.3275V15.327V15.3264V15.3258V15.3252V15.3246V15.324V15.3234V15.3229V15.3223V15.3217V15.3211V15.3205V15.3199V15.3193V15.3188V15.3182V15.3176V15.317V15.3164V15.3158V15.3152V15.3146V15.3141V15.3135V15.3129V15.3123V15.3117V15.3111V15.3105V15.31V15.3094V15.3088V15.3082V15.3076V15.307V15.3064V15.3059V15.3053V15.3047V15.3041V15.3035V15.3029V15.3023V15.3018V15.3012V15.3006V15.3V15.2994V15.2988V15.2982V15.2977V15.2971V15.2965V15.2959V15.2953V15.2947V15.2941V15.2936V15.293V15.2924V15.2918V15.2912V15.2906V15.29V15.2895V15.2889V15.2883V15.2877V15.2871V15.2865V15.2859V15.2854V15.2848V15.2842V15.2836V15.283V15.2824V15.2818V15.2812V15.2807V15.2801V15.2795V15.2789V15.2783V15.2777V15.2771V15.2766V15.276V15.2754V15.2748V15.2742V15.2736V15.273V15.2725V15.2719V15.2713V15.2707V15.2701V15.2695V15.2689V15.2684V15.2678V15.2672V15.2666V15.266V15.2654V15.2648V15.2643V15.2637V15.2631V15.2625V15.2619V15.2613V15.2607V15.2602V15.2596V15.259V15.2584V15.2578V15.2572V15.2566V15.2561V15.2555V15.2549V15.242L14.7293 15.229C14.7249 15.143 14.7249 15.0568 14.7293 14.9707L14.745 14.6677L14.4835 14.5139L13.2133 13.7667L13.8479 12.6812L15.1052 13.4252L15.3895 13.5934L15.6557 13.3979C15.7983 13.2933 15.951 13.2028 16.1114 13.128L16.3999 12.9933V12.6749V11.2549H17.6699V12.6749V12.989L17.953 13.1254C18.116 13.2039 18.2719 13.2963 18.419 13.4015L18.6841 13.5912L18.9646 13.4252L20.2203 12.6821L20.849 13.7669L19.5855 14.5146L19.3251 14.6686L19.3408 14.9707C19.3452 15.0568 19.3452 15.143 19.3408 15.229ZM17 17.2549L17.0033 17.2549C17.5318 17.2514 18.0375 17.0398 18.4112 16.6662C18.7848 16.2926 18.9965 15.7868 19 15.2582L19 15.2582V15.2549C19 14.8592 18.8825 14.4725 18.6628 14.1437C18.4431 13.8149 18.1308 13.5585 17.7653 13.4071C17.3999 13.2557 16.9977 13.2161 16.6097 13.2933C16.2218 13.3705 15.8654 13.5609 15.5857 13.8407C15.3059 14.1205 15.1156 14.4769 15.0384 14.8647C14.9612 15.2528 15.001 15.6549 15.1523 16.0202C15.3036 16.3855 15.5596 16.6979 15.8887 16.9178C16.2177 17.1376 16.6045 17.2549 17 17.2549Z" fill="white" stroke="white"/>
</svg>
