<svg width="21" height="20" viewBox="0 0 21 20" fill="none" xmlns="http://www.w3.org/2000/svg">
<path fill-rule="evenodd" clip-rule="evenodd" d="M10.0489 0.00888368C9.47327 0.041696 8.7815 0.258073 8.22755 0.578596C7.90057 0.767787 7.59471 1.00457 7.2842 1.30893C6.97717 1.60986 6.766 1.8693 6.56469 2.19295C6.0435 3.03085 5.83823 4.07528 5.98854 5.12442C6.13663 6.15797 6.64153 7.11816 7.64746 8.27929C8.45993 9.21714 10.492 11.404 10.5204 11.371C10.5281 11.3621 10.7269 11.1328 10.9623 10.8614C12.6333 8.93514 13.6068 7.77753 13.9206 7.34371C14.5044 6.53667 14.9065 5.67668 15.0103 5.01279C15.0586 4.70396 15.0586 4.088 15.0103 3.77625C14.8892 2.9942 14.5691 2.28217 14.062 1.66644C13.7755 1.31871 13.2479 0.862634 12.8548 0.622976C12.3596 0.321136 11.7502 0.108286 11.1887 0.0411082C10.869 0.00285864 10.3915 -0.01064 10.0489 0.00888368ZM10.1692 2.35991C9.31001 2.49282 8.55777 3.15996 8.33205 3.98925C8.27456 4.20044 8.25361 4.66515 8.29126 4.89381C8.45586 5.89348 9.30221 6.6431 10.3703 6.73528C10.8625 6.77775 11.4782 6.58004 11.8874 6.2481C12.5983 5.67148 12.8909 4.83943 12.6749 4.00867C12.4749 3.23929 11.8281 2.60736 11.0371 2.40857C10.8046 2.35013 10.3846 2.32657 10.1692 2.35991ZM14.6921 7.33638C14.5884 7.49902 14.5069 7.64208 14.511 7.6543C14.523 7.68947 14.9791 7.92264 17.87 9.37167C18.956 9.916 19.7974 10.3485 19.8276 10.378C19.8474 10.3972 19.5093 10.6646 18.1914 11.6719C16.7164 12.7992 16.0276 13.3177 16.005 13.3177C15.9928 13.3177 15.1763 12.617 14.1906 11.7606L12.3984 10.2035L12.2719 10.3354L12.1454 10.4673L12.206 10.5301C12.3201 10.6482 12.995 11.2525 13.8309 11.985C14.6794 12.7286 15.357 13.3361 15.4896 13.4721L15.5628 13.5471L15.4575 13.5917C15.0685 13.7562 10.3525 15.5849 10.3171 15.5849C10.3124 15.5849 9.31652 14.3734 8.10394 12.8925C5.1206 9.2493 4.03471 7.90859 4.05286 7.89079C4.06064 7.88319 4.95738 7.858 6.13198 7.83239C6.28167 7.82913 6.40955 7.82116 6.41617 7.81469C6.42575 7.80531 6.22656 7.47223 6.00472 7.12664L5.97228 7.07613L4.85539 7.08931C4.24108 7.09656 3.62482 7.11261 3.48591 7.125L3.23332 7.14753L2.82165 7.42306C1.39151 8.38022 0.753014 8.81098 0.545766 8.95844C0.0114695 9.33861 -0.0640413 9.44025 0.0400753 9.63944C0.171105 9.89012 3.13694 14.1792 5.58838 17.6632C6.76923 19.3415 7.20567 19.9423 7.26758 19.9747C7.39295 20.0405 7.58063 19.9752 7.73611 19.8118C7.83354 19.7094 9.36424 17.879 10.2203 16.8412L10.681 16.2827L12.0524 15.7461C12.8066 15.451 14.0549 14.9631 14.8264 14.662C15.5978 14.3608 16.2535 14.0988 16.2835 14.0796C16.3721 14.0228 20.4139 10.9486 20.7173 10.7072C20.9867 10.4928 21.0622 10.3102 20.9496 10.1455C20.8695 10.0284 20.481 9.81742 18.8663 9.01443C18.4421 8.80343 17.8828 8.52455 17.6235 8.39471C16.8406 8.0026 14.898 7.04069 14.8891 7.04069C14.8845 7.04069 14.7959 7.17375 14.6921 7.33638ZM3.04208 8.19901C2.45708 8.58327 1.04417 9.52973 0.982631 9.57856L0.931527 9.61907L1.35251 10.235C2.24793 11.5451 7.36177 18.8745 7.4288 18.9438C7.44645 18.9621 7.59195 18.7926 8.82403 17.3184L10.028 15.8779L7.75197 13.102C4.52913 9.17142 3.49602 7.92138 3.47211 7.92348C3.4654 7.92406 3.27189 8.04805 3.04208 8.19901Z" fill="white"/>
</svg>
