<svg width="11" height="11" viewBox="0 0 11 11" fill="none" xmlns="http://www.w3.org/2000/svg">
<path d="M3.7185 4.968H2.25C1.91848 4.968 1.60054 4.8363 1.36612 4.60188C1.1317 4.36746 1 4.04952 1 3.718V2.25C1 1.91848 1.1317 1.60054 1.36612 1.36612C1.60054 1.1317 1.91848 1 2.25 1H3.7185C4.05002 1 4.36796 1.1317 4.60238 1.36612C4.8368 1.60054 4.9685 1.91848 4.9685 2.25V3.718C4.9685 4.04952 4.8368 4.36746 4.60238 4.60188C4.36796 4.8363 4.05002 4.968 3.7185 4.968ZM2.25 1.5C2.05109 1.5 1.86032 1.57902 1.71967 1.71967C1.57902 1.86032 1.5 2.05109 1.5 2.25V3.718C1.5 3.91691 1.57902 4.10768 1.71967 4.24833C1.86032 4.38898 2.05109 4.468 2.25 4.468H3.7185C3.91741 4.468 4.10818 4.38898 4.24883 4.24833C4.38948 4.10768 4.4685 3.91691 4.4685 3.718V2.25C4.4685 2.05109 4.38948 1.86032 4.24883 1.71967C4.10818 1.57902 3.91741 1.5 3.7185 1.5H2.25ZM8.6865 4.968H7.2185C6.88698 4.968 6.56904 4.8363 6.33462 4.60188C6.1002 4.36746 5.9685 4.04952 5.9685 3.718V2.25C5.9685 1.91848 6.1002 1.60054 6.33462 1.36612C6.56904 1.1317 6.88698 1 7.2185 1H8.6855C8.84965 1 9.0122 1.03233 9.16385 1.09515C9.31551 1.15797 9.45331 1.25004 9.56938 1.36612C9.68546 1.48219 9.77753 1.61999 9.84035 1.77165C9.90317 1.9233 9.9355 2.08585 9.9355 2.25V3.718C9.9355 4.04935 9.80394 4.36714 9.56974 4.60153C9.33553 4.83592 9.01785 4.96773 8.6865 4.968V4.968ZM7.2185 1.5C7.01959 1.5 6.82882 1.57902 6.68817 1.71967C6.54752 1.86032 6.4685 2.05109 6.4685 2.25V3.718C6.4685 3.91691 6.54752 4.10768 6.68817 4.24833C6.82882 4.38898 7.01959 4.468 7.2185 4.468H8.6855C8.88441 4.468 9.07518 4.38898 9.21583 4.24833C9.35648 4.10768 9.4355 3.91691 9.4355 3.718V2.25C9.4355 2.05109 9.35648 1.86032 9.21583 1.71967C9.07518 1.57902 8.88441 1.5 8.6855 1.5H7.2185ZM3.7185 9.936H2.2505C1.91898 9.936 1.60104 9.8043 1.36662 9.56988C1.1322 9.33546 1.0005 9.01752 1.0005 8.686V7.218C1.0005 6.88648 1.1322 6.56854 1.36662 6.33412C1.60104 6.0997 1.91898 5.968 2.2505 5.968H3.7185C4.05002 5.968 4.36796 6.0997 4.60238 6.33412C4.8368 6.56854 4.9685 6.88648 4.9685 7.218V8.686C4.9685 9.01752 4.8368 9.33546 4.60238 9.56988C4.36796 9.8043 4.05002 9.936 3.7185 9.936ZM2.2505 6.468C2.05159 6.468 1.86082 6.54702 1.72017 6.68767C1.57952 6.82832 1.5005 7.01909 1.5005 7.218V8.686C1.5005 8.88491 1.57952 9.07568 1.72017 9.21633C1.86082 9.35698 2.05159 9.436 2.2505 9.436H3.7185C3.91741 9.436 4.10818 9.35698 4.24883 9.21633C4.38948 9.07568 4.4685 8.88491 4.4685 8.686V7.218C4.4685 7.01909 4.38948 6.82832 4.24883 6.68767C4.10818 6.54702 3.91741 6.468 3.7185 6.468H2.2505ZM8.6865 9.936H7.2185C6.88698 9.936 6.56904 9.8043 6.33462 9.56988C6.1002 9.33546 5.9685 9.01752 5.9685 8.686V7.218C5.9685 6.88648 6.1002 6.56854 6.33462 6.33412C6.56904 6.0997 6.88698 5.968 7.2185 5.968H8.6855C8.84965 5.968 9.0122 6.00033 9.16385 6.06315C9.31551 6.12597 9.45331 6.21804 9.56938 6.33412C9.68546 6.45019 9.77753 6.58799 9.84035 6.73965C9.90317 6.8913 9.9355 7.05385 9.9355 7.218V8.686C9.9355 9.01735 9.80394 9.33514 9.56974 9.56953C9.33553 9.80392 9.01785 9.93574 8.6865 9.936ZM7.2185 6.468C7.01959 6.468 6.82882 6.54702 6.68817 6.68767C6.54752 6.82832 6.4685 7.01909 6.4685 7.218V8.686C6.4685 8.88491 6.54752 9.07568 6.68817 9.21633C6.82882 9.35698 7.01959 9.436 7.2185 9.436H8.6855C8.88441 9.436 9.07518 9.35698 9.21583 9.21633C9.35648 9.07568 9.4355 8.88491 9.4355 8.686V7.218C9.4355 7.01909 9.35648 6.82832 9.21583 6.68767C9.07518 6.54702 8.88441 6.468 8.6855 6.468H7.2185Z" fill="white" stroke="white" stroke-width="0.5"/>
</svg>
