<svg width="12" height="12" viewBox="0 0 12 12" fill="none" xmlns="http://www.w3.org/2000/svg">
<path d="M7.87084 5.18986L8.82934 4.72561C8.88187 4.70026 8.92749 4.6626 8.96234 4.61583C8.99719 4.56907 9.02024 4.51458 9.02951 4.457C9.03879 4.39942 9.03403 4.34045 9.01563 4.2851C8.99723 4.22976 8.96575 4.17967 8.92384 4.13911C8.73484 3.95611 8.41234 4.03486 8.22484 4.21936C8.05234 4.38886 7.84009 4.49911 7.61284 4.61686L7.53634 4.65736C7.28284 4.79086 7.33834 5.12686 7.61134 5.20936C7.69731 5.23551 7.78997 5.22827 7.87084 5.18911V5.18986ZM5.80534 7.35586V7.33486C5.80529 7.28816 5.81579 7.24205 5.83607 7.19998C5.85635 7.15791 5.88588 7.12098 5.92245 7.09193C5.95902 7.06289 6.00169 7.04249 6.04725 7.03226C6.09282 7.02203 6.14011 7.02224 6.18559 7.03287C6.23106 7.0435 6.27354 7.06427 6.30986 7.09363C6.34617 7.123 6.37538 7.1602 6.39528 7.20244C6.41519 7.24468 6.42529 7.29088 6.42483 7.33758C6.42436 7.38428 6.41334 7.43027 6.39259 7.47211L6.22759 7.80436C6.205 7.85096 6.17455 7.89333 6.13759 7.92961L5.99284 8.06836C5.96804 8.0957 5.93788 8.11767 5.90425 8.1329C5.87062 8.14813 5.83422 8.1563 5.79731 8.1569C5.76039 8.15751 5.72375 8.15054 5.68963 8.13642C5.65552 8.12231 5.62466 8.10134 5.59897 8.07483C5.57328 8.04832 5.5533 8.01682 5.54026 7.98227C5.52723 7.94773 5.52141 7.91088 5.52318 7.87401C5.52495 7.83713 5.53426 7.80101 5.55055 7.76787C5.56683 7.73474 5.58973 7.70529 5.61784 7.68136L5.70184 7.60036C5.73462 7.56864 5.76068 7.53064 5.77846 7.48864C5.79625 7.44663 5.80539 7.40147 5.80534 7.35586V7.35586ZM4.25359 9.37486L4.61509 9.54961C4.65433 9.56872 4.69738 9.57872 4.74102 9.57885C4.78466 9.57898 4.82777 9.56924 4.86712 9.55036C4.90647 9.53148 4.94104 9.50394 4.96825 9.46982C4.99545 9.43569 5.01459 9.39586 5.02423 9.35329C5.03387 9.31073 5.03376 9.26653 5.02391 9.22401C5.01406 9.1815 4.99473 9.14176 4.96735 9.10776C4.93998 9.07377 4.90527 9.04641 4.86583 9.02773C4.82639 9.00904 4.78323 8.99951 4.73959 8.99986H4.42759C4.31436 8.99981 4.20416 8.96325 4.11334 8.89561L3.90559 8.74111C3.87992 8.72181 3.85044 8.70818 3.81911 8.70115C3.78777 8.69411 3.7553 8.69381 3.72384 8.70028C3.69238 8.70675 3.66266 8.71984 3.63665 8.73867C3.61063 8.75751 3.58892 8.78166 3.57295 8.80952C3.55698 8.83739 3.54712 8.86833 3.54402 8.90029C3.54093 8.93226 3.54466 8.96452 3.55498 8.99493C3.56531 9.02534 3.58198 9.05321 3.60389 9.07669C3.62581 9.10017 3.65246 9.11872 3.68209 9.13111L4.25284 9.37486H4.25359Z" fill="white"/>
<path d="M6 0C4.4087 0 2.88258 0.632141 1.75736 1.75736C0.632141 2.88258 0 4.4087 0 6C0 7.5913 0.632141 9.11742 1.75736 10.2426C2.88258 11.3679 4.4087 12 6 12C7.5913 12 9.11742 11.3679 10.2426 10.2426C11.3679 9.11742 12 7.5913 12 6C12 4.4087 11.3679 2.88258 10.2426 1.75736C9.11742 0.632141 7.5913 0 6 0V0ZM1.209 8.15025L1.776 7.18425C1.83289 7.08727 1.91085 7.00432 2.00412 6.94153C2.09739 6.87875 2.20358 6.83774 2.31484 6.82154C2.4261 6.80534 2.53958 6.81435 2.64688 6.84793C2.75419 6.8815 2.85257 6.93877 2.93475 7.0155L3.74025 7.76925C3.87881 7.8991 4.06201 7.97067 4.2519 7.96913C4.44179 7.9676 4.62381 7.89307 4.76025 7.761L4.78875 7.73325C4.8635 7.66086 4.92012 7.57185 4.954 7.47346C4.98788 7.37507 4.99808 7.27007 4.98375 7.167C4.9275 6.756 5.26125 6.39225 5.67375 6.34275C6.21975 6.27825 6.864 6.09975 6.96975 5.625C7.03425 5.3355 6.88425 5.0025 6.699 4.725C6.54375 4.491 6.699 4.125 6.9795 4.125C7.07175 4.125 7.1595 4.08375 7.218 4.0125L7.51275 3.657C7.65975 3.47925 7.881 3.381 8.1105 3.35475C8.526 3.30675 9.16575 3.147 9.29775 2.625C9.37125 2.33175 9.15375 2.1495 8.93475 1.965C8.74425 1.806 8.55225 1.6455 8.5485 1.40925C9.54476 1.96179 10.3342 2.82347 10.7976 3.86419C11.261 4.90491 11.3732 6.06815 11.1172 7.17825C11.0963 7.16136 11.0746 7.14559 11.052 7.131L10.815 6.978C10.707 6.90833 10.5828 6.8676 10.4545 6.85972C10.3262 6.85184 10.198 6.87707 10.0822 6.933L9.9555 6.9945C9.78203 7.07813 9.58304 7.09182 9.39975 7.03275L8.634 6.786C8.55959 6.76208 8.48191 6.74993 8.40375 6.75H8.28C8.12396 6.75006 7.97182 6.79878 7.84478 6.88939C7.71774 6.98 7.62212 7.10798 7.57125 7.2555L7.44225 7.62975C7.38729 7.78857 7.28059 7.92433 7.13925 8.01525L6.53775 8.40375C6.43241 8.47169 6.34577 8.56495 6.28577 8.675C6.22576 8.78506 6.1943 8.9084 6.19425 9.03375V9.375C6.19425 9.57391 6.27327 9.76468 6.41392 9.90533C6.55457 10.046 6.74534 10.125 6.94425 10.125H7.137C7.28122 10.1251 7.42236 10.1667 7.5435 10.245L8.115 10.6125C8.1804 10.6549 8.25201 10.6867 8.32725 10.707C7.69437 11.0199 7.00488 11.202 6.30002 11.2423C5.59516 11.2826 4.88941 11.1804 4.22497 10.9417C3.56053 10.703 2.95104 10.3328 2.43296 9.85317C1.91489 9.37354 1.49885 8.79435 1.20975 8.15025H1.209Z" fill="white"/>
</svg>
