<svg width="24" height="25" viewBox="0 0 24 25" fill="none" xmlns="http://www.w3.org/2000/svg">
<g clip-path="url(#clip0_448_10223)">
<path fill-rule="evenodd" clip-rule="evenodd" d="M24 12.5C24 19.127 18.627 24.5 12 24.5C5.373 24.5 0 19.127 0 12.5C0 5.873 5.373 0.5 12 0.5C18.627 0.5 24 5.873 24 12.5ZM6 16.7H15V10.1C15 9.86362 14.9534 9.62956 14.863 9.41117C14.7725 9.19278 14.6399 8.99435 14.4728 8.82721C14.3056 8.66006 14.1072 8.52748 13.8888 8.43702C13.6704 8.34656 13.4364 8.3 13.2 8.3H4.2V14.9C4.2 15.3774 4.38964 15.8352 4.72721 16.1728C4.89435 16.3399 5.09278 16.4725 5.31117 16.563C5.52956 16.6534 5.76362 16.7 6 16.7ZM16.2 14.3L19.8 16.7V8.3L16.2 10.7V14.3Z" fill="white"/>
</g>
<defs>
<clipPath id="clip0_448_10223">
<rect width="24" height="24" fill="white" transform="translate(0 0.5)"/>
</clipPath>
</defs>
</svg>
