<svg width="42" height="36" viewBox="0 0 42 36" fill="none" xmlns="http://www.w3.org/2000/svg">
<path d="M31 1C25.48 1 21 5.00842 21 9.94737C21 14.8863 25.48 18.8947 31 18.8947C36.52 18.8947 41 14.8863 41 9.94737C41 5.00842 36.52 1 31 1ZM31 11.7368C30.44 11.7368 30 11.3432 30 10.8421V5.47368C30 4.97263 30.44 4.57895 31 4.57895C31.56 4.57895 32 4.97263 32 5.47368V10.8421C32 11.3432 31.56 11.7368 31 11.7368ZM32 14.4211C32 14.9221 31.56 15.3158 31 15.3158C30.44 15.3158 30 14.9221 30 14.4211C30 13.92 30.44 13.5263 31 13.5263C31.56 13.5263 32 13.92 32 14.4211ZM34 35C35.64 35 37 33.8011 37 32.3158V21.2568C34.9 22.1695 32.68 22.4916 30.82 22.4737C30.94 22.76 31 23.0642 31 23.3684C31 24.8537 29.66 26.0526 28 26.0526C26.34 26.0526 25 24.8537 25 23.3684C25 22.6705 25.3 22.0442 25.78 21.5611C22.5213 20.3821 19.8742 18.154 18.36 15.3158H6.62L8.7 9.94737H17C17 8.71263 17.2 7.49579 17.58 6.36842H8C6.68 6.36842 5.58 7.12 5.16 8.17579L1.22 18.3221C1.08 18.6979 1 19.0916 1 19.5032V32.3158C1 33.8011 2.34 35 4 35C5.66 35 7 33.8011 7 32.3158V31.4211H31V32.3158C31 33.8011 32.36 35 34 35ZM10 26.0526C8.34 26.0526 7 24.8537 7 23.3684C7 21.8832 8.34 20.6842 10 20.6842C11.66 20.6842 13 21.8832 13 23.3684C13 24.8537 11.66 26.0526 10 26.0526Z" fill="white"/>
</svg>
