<svg width="46" height="34" viewBox="0 0 46 34" fill="none" xmlns="http://www.w3.org/2000/svg">
<path d="M41.9583 0.25H4.04167C1.94835 0.25 0.25 1.8577 0.25 3.83929V30.1607C0.25 32.1423 1.94835 33.75 4.04167 33.75H41.9583C44.0516 33.75 45.75 32.1423 45.75 30.1607V3.83929C45.75 1.8577 44.0516 0.25 41.9583 0.25ZM41.9583 30.1607H24.2007C24.2718 29.8242 24.2639 30.4299 24.2639 28.4857C24.2639 26.1078 21.8862 24.1786 18.9556 24.1786C18.1024 24.1786 17.4784 24.7768 15.4167 24.7768C13.2918 24.7768 12.7783 24.1786 11.8778 24.1786C8.94713 24.1786 6.56944 26.1078 6.56944 28.4857C6.56944 30.4299 6.55365 29.8242 6.63264 30.1607H4.04167V8.625H41.9583V30.1607ZM28.6875 24.1786H37.5347C37.8823 24.1786 38.1667 23.9094 38.1667 23.5804V22.3839C38.1667 22.0549 37.8823 21.7857 37.5347 21.7857H28.6875C28.3399 21.7857 28.0556 22.0549 28.0556 22.3839V23.5804C28.0556 23.9094 28.3399 24.1786 28.6875 24.1786ZM28.6875 19.3929H37.5347C37.8823 19.3929 38.1667 19.1237 38.1667 18.7946V17.5982C38.1667 17.2692 37.8823 17 37.5347 17H28.6875C28.3399 17 28.0556 17.2692 28.0556 17.5982V18.7946C28.0556 19.1237 28.3399 19.3929 28.6875 19.3929ZM28.6875 14.6071H37.5347C37.8823 14.6071 38.1667 14.3379 38.1667 14.0089V12.8125C38.1667 12.4835 37.8823 12.2143 37.5347 12.2143H28.6875C28.3399 12.2143 28.0556 12.4835 28.0556 12.8125V14.0089C28.0556 14.3379 28.3399 14.6071 28.6875 14.6071ZM15.4167 21.7857C18.2051 21.7857 20.4722 19.6396 20.4722 17C20.4722 14.3604 18.2051 12.2143 15.4167 12.2143C12.6282 12.2143 10.3611 14.3604 10.3611 17C10.3611 19.6396 12.6282 21.7857 15.4167 21.7857Z" fill="white"/>
</svg>
