<svg width="28" height="36" viewBox="0 0 28 36" fill="none" xmlns="http://www.w3.org/2000/svg">
<path d="M5.19688 19.0999C5.19688 18.8082 5.31277 18.5284 5.51906 18.3221C5.72535 18.1158 6.00514 17.9999 6.29688 17.9999C6.58861 17.9999 6.8684 18.1158 7.07469 18.3221C7.28098 18.5284 7.39688 18.8082 7.39688 19.0999C7.39688 19.3916 7.28098 19.6714 7.07469 19.8777C6.8684 20.084 6.58861 20.1999 6.29688 20.1999C6.00514 20.1999 5.72535 20.084 5.51906 19.8777C5.31277 19.6714 5.19688 19.3916 5.19688 19.0999ZM6.29688 22.3999C6.00514 22.3999 5.72535 22.5158 5.51906 22.7221C5.31277 22.9284 5.19688 23.2082 5.19688 23.4999C5.19688 23.7916 5.31277 24.0714 5.51906 24.2777C5.72535 24.484 6.00514 24.5999 6.29688 24.5999C6.58861 24.5999 6.8684 24.484 7.07469 24.2777C7.28098 24.0714 7.39688 23.7916 7.39688 23.4999C7.39688 23.2082 7.28098 22.9284 7.07469 22.7221C6.8684 22.5158 6.58861 22.3999 6.29688 22.3999ZM5.19688 27.8999C5.19688 27.6082 5.31277 27.3284 5.51906 27.1221C5.72535 26.9158 6.00514 26.7999 6.29688 26.7999C6.58861 26.7999 6.8684 26.9158 7.07469 27.1221C7.28098 27.3284 7.39688 27.6082 7.39688 27.8999C7.39688 28.1916 7.28098 28.4714 7.07469 28.6777C6.8684 28.884 6.58861 28.9999 6.29688 28.9999C6.00514 28.9999 5.72535 28.884 5.51906 28.6777C5.31277 28.4714 5.19688 28.1916 5.19688 27.8999ZM10.6969 17.9999C10.4051 17.9999 10.1253 18.1158 9.91906 18.3221C9.71277 18.5284 9.59688 18.8082 9.59688 19.0999C9.59688 19.3916 9.71277 19.6714 9.91906 19.8777C10.1253 20.084 10.4051 20.1999 10.6969 20.1999H21.6969C21.9886 20.1999 22.2684 20.084 22.4747 19.8777C22.681 19.6714 22.7969 19.3916 22.7969 19.0999C22.7969 18.8082 22.681 18.5284 22.4747 18.3221C22.2684 18.1158 21.9886 17.9999 21.6969 17.9999H10.6969ZM9.59688 23.4999C9.59688 23.2082 9.71277 22.9284 9.91906 22.7221C10.1253 22.5158 10.4051 22.3999 10.6969 22.3999H21.6969C21.9886 22.3999 22.2684 22.5158 22.4747 22.7221C22.681 22.9284 22.7969 23.2082 22.7969 23.4999C22.7969 23.7916 22.681 24.0714 22.4747 24.2777C22.2684 24.484 21.9886 24.5999 21.6969 24.5999H10.6969C10.4051 24.5999 10.1253 24.484 9.91906 24.2777C9.71277 24.0714 9.59688 23.7916 9.59688 23.4999ZM10.6969 26.7999C10.4051 26.7999 10.1253 26.9158 9.91906 27.1221C9.71277 27.3284 9.59688 27.6082 9.59688 27.8999C9.59688 28.1916 9.71277 28.4714 9.91906 28.6777C10.1253 28.884 10.4051 28.9999 10.6969 28.9999H21.6969C21.9886 28.9999 22.2684 28.884 22.4747 28.6777C22.681 28.4714 22.7969 28.1916 22.7969 27.8999C22.7969 27.6082 22.681 27.3284 22.4747 27.1221C22.2684 26.9158 21.9886 26.7999 21.6969 26.7999H10.6969ZM5.19688 0.399902C4.02992 0.399902 2.91077 0.863472 2.08561 1.68863C1.26044 2.51379 0.796875 3.63295 0.796875 4.7999V31.1999C0.796875 32.3669 1.26044 33.486 2.08561 34.3112C2.91077 35.1363 4.02992 35.5999 5.19688 35.5999H22.7969C23.9638 35.5999 25.083 35.1363 25.9081 34.3112C26.7333 33.486 27.1969 32.3669 27.1969 31.1999V12.3107C27.1961 11.4358 26.8479 10.597 26.2289 9.9787L17.6181 1.3657C16.9994 0.747462 16.1607 0.400089 15.2861 0.399902H5.19688ZM2.99688 4.7999C2.99688 4.21643 3.22866 3.65685 3.64124 3.24427C4.05382 2.83169 4.6134 2.5999 5.19688 2.5999H13.9969V10.2999C13.9969 11.1751 14.3446 12.0145 14.9634 12.6334C15.5823 13.2522 16.4217 13.5999 17.2969 13.5999H24.9969V31.1999C24.9969 31.7834 24.7651 32.343 24.3525 32.7555C23.9399 33.1681 23.3804 33.3999 22.7969 33.3999H5.19688C4.6134 33.3999 4.05382 33.1681 3.64124 32.7555C3.22866 32.343 2.99688 31.7834 2.99688 31.1999V4.7999ZM24.5415 11.3999H17.2969C17.0051 11.3999 16.7253 11.284 16.5191 11.0777C16.3128 10.8714 16.1969 10.5916 16.1969 10.2999V3.0553L24.5415 11.3999Z" fill="white"/>
</svg>
