<svg width="42" height="36" viewBox="0 0 42 36" fill="none" xmlns="http://www.w3.org/2000/svg">
<path d="M40.933 19.9755L33.9568 2.5361C33.7051 1.90528 33.2698 1.36449 32.7074 0.983668C32.145 0.602842 31.4813 0.39949 30.802 0.399903H25.4472L26.2832 9.3429H32.2232L21.0032 18.6445L9.78325 9.3429H15.7232L16.5592 0.399903H11.2044C9.81405 0.399903 8.56445 1.2447 8.04965 2.5361L1.07345 19.9755C0.440078 21.561 0.252912 23.2896 0.532247 24.9739L1.83025 32.7597C1.96205 33.5532 2.37114 34.2741 2.98471 34.7942C3.59828 35.3143 4.3765 35.5998 5.18085 35.5999H36.8234C38.4844 35.5999 39.9013 34.3987 40.1741 32.7597L41.4721 24.9739C41.7555 23.2899 41.569 21.5604 40.933 19.9755V19.9755ZM36.313 29.5389C36.2363 30.0032 35.9971 30.4252 35.6381 30.7295C35.279 31.0337 34.8235 31.2005 34.3528 31.1999H7.65365C7.18301 31.2005 6.7275 31.0337 6.36844 30.7295C6.00938 30.4252 5.77015 30.0032 5.69345 29.5389L4.89045 24.7143C4.84242 24.4295 4.85713 24.1377 4.93356 23.8592C5.00999 23.5806 5.14629 23.3222 5.33295 23.1018C5.51961 22.8814 5.75213 22.7044 6.01426 22.5832C6.2764 22.462 6.56184 22.3994 6.85065 22.3999H35.158C36.3856 22.3999 37.3207 23.5021 37.1183 24.7143L36.313 29.5389V29.5389Z" fill="white"/>
</svg>
