<svg width="38" height="34" viewBox="0 0 38 34" fill="none" xmlns="http://www.w3.org/2000/svg">
<path d="M36.9266 7.7474C37.5191 8.58854 37.6524 9.54036 37.3266 10.6029L31.2166 30.6576C30.9352 31.602 30.3687 32.3952 29.517 33.0371C28.6653 33.679 27.7581 34 26.7953 34H6.28823C5.14771 34 4.04793 33.6053 2.98888 32.8158C1.92983 32.0263 1.19294 31.056 0.778206 29.9049C0.422721 28.9162 0.407909 27.9792 0.73377 27.0937C0.73377 27.0347 0.755988 26.8355 0.800424 26.4961C0.84486 26.1567 0.874483 25.8837 0.889295 25.6771C0.904107 25.559 0.881889 25.4004 0.822642 25.2012C0.763394 25.002 0.741176 24.8581 0.755988 24.7695C0.785612 24.6072 0.84486 24.4523 0.933731 24.3047C1.0226 24.1571 1.1448 23.9837 1.30033 23.7845C1.45585 23.5853 1.57805 23.4119 1.66692 23.2643C2.00759 22.7036 2.34086 22.0284 2.66672 21.2389C2.99258 20.4494 3.21476 19.7743 3.33326 19.2135C3.37769 19.066 3.3814 18.8446 3.34437 18.5495C3.30734 18.2543 3.30363 18.0477 3.33326 17.9297C3.37769 17.7674 3.50359 17.5608 3.71096 17.3099C3.91833 17.059 4.04423 16.8893 4.08866 16.8008C4.39971 16.2695 4.71076 15.5907 5.02181 14.7643C5.33286 13.9379 5.51801 13.2739 5.57726 12.7721C5.59207 12.6393 5.57356 12.4032 5.52172 12.0638C5.46987 11.7244 5.47358 11.5178 5.53282 11.444C5.59207 11.2522 5.755 11.0271 6.02162 10.7689C6.28823 10.5106 6.45116 10.3446 6.51041 10.2708C6.79183 9.88715 7.10659 9.26367 7.45467 8.40039C7.80275 7.53711 8.00641 6.82509 8.06566 6.26432C8.08047 6.14627 8.05825 5.95812 7.999 5.69987C7.93976 5.44162 7.92494 5.24609 7.95457 5.11328C7.98419 4.99523 8.05085 4.86241 8.15453 4.71484C8.25821 4.56727 8.39152 4.39757 8.55445 4.20573C8.71738 4.01389 8.84328 3.85894 8.93215 3.74089C9.05065 3.5638 9.17285 3.33876 9.29875 3.06576C9.42465 2.79275 9.53574 2.53451 9.63202 2.29102C9.72829 2.04753 9.84679 1.7819 9.9875 1.49414C10.1282 1.20638 10.2726 0.970269 10.4207 0.785807C10.5689 0.601345 10.7651 0.427951 11.0095 0.265625C11.2539 0.103299 11.5205 0.0184462 11.8094 0.0110677C12.0982 0.00368924 12.45 0.0442708 12.8647 0.132812L12.8425 0.199219C13.4053 0.0664062 13.783 0 13.9756 0H30.8834C31.9795 0 32.8237 0.413194 33.4162 1.23958C34.0087 2.06597 34.142 3.02517 33.8161 4.11719L27.7284 24.1719C27.1952 25.928 26.6657 27.0605 26.1399 27.5697C25.614 28.0788 24.6624 28.3333 23.2849 28.3333H3.97758C3.57765 28.3333 3.29623 28.444 3.1333 28.6654C2.97037 28.9015 2.96296 29.2187 3.11108 29.6172C3.46656 30.6502 4.53302 31.1667 6.31045 31.1667H26.8175C27.2471 31.1667 27.6618 31.0523 28.0617 30.8236C28.4616 30.5948 28.7208 30.2886 28.8393 29.9049L35.5047 8.05729C35.6084 7.73264 35.6454 7.31207 35.6158 6.79557C36.1786 7.01693 36.6156 7.3342 36.9266 7.7474ZM13.2869 7.79167C13.2276 7.98351 13.2424 8.14952 13.3313 8.28971C13.4202 8.4299 13.5683 8.5 13.7756 8.5H27.2841C27.4766 8.5 27.6655 8.4299 27.8506 8.28971C28.0358 8.14952 28.158 7.98351 28.2172 7.79167L28.6838 6.375C28.7431 6.18316 28.7283 6.01714 28.6394 5.87695C28.5505 5.73676 28.4024 5.66667 28.195 5.66667H14.6866C14.494 5.66667 14.3052 5.73676 14.12 5.87695C13.9349 6.01714 13.8127 6.18316 13.7534 6.375L13.2869 7.79167ZM11.4428 13.4583C11.3835 13.6502 11.3983 13.8162 11.4872 13.9564C11.5761 14.0966 11.7242 14.1667 11.9316 14.1667H25.44C25.6326 14.1667 25.8214 14.0966 26.0066 13.9564C26.1917 13.8162 26.3139 13.6502 26.3732 13.4583L26.8397 12.0417C26.899 11.8498 26.8842 11.6838 26.7953 11.5436C26.7064 11.4034 26.5583 11.3333 26.3509 11.3333H12.8425C12.6499 11.3333 12.4611 11.4034 12.2759 11.5436C12.0908 11.6838 11.9686 11.8498 11.9093 12.0417L11.4428 13.4583Z" fill="white"/>
</svg>
