<svg width="54" height="36" viewBox="0 0 54 36" fill="none" xmlns="http://www.w3.org/2000/svg">
<path d="M28.7578 2.75C29.9062 2.75 30.9609 3.29805 31.5 4.17833L32.6016 5.94501L36.3047 3.25516C36.7578 2.92837 37.3203 2.75 37.9063 2.75H39.5C40.8828 2.75 42 3.72559 42 4.92857V7.10714C42 8.31217 40.8828 9.28571 39.5 9.28571H34.6719L38.9766 16.1686C39.9297 15.9644 40.9453 15.8214 42 15.8214C47.5234 15.8214 52 19.7224 52 24.5357C52 29.349 47.5234 33.25 42 33.25C36.4766 33.25 32 29.349 32 24.5357C32 21.7512 33.4375 19.382 35.6797 17.7821L34.4766 15.835C31.3828 17.823 29.5 20.9819 29.5 24.5357C29.5 25.2233 29.5859 26.0131 29.75 26.7143H24.25C24.4141 26.0131 24.4297 25.2233 24.4297 24.5357C24.4297 18.5174 18.9063 13.6429 11.9297 13.6429H4.42969V11.4643C4.42969 10.2593 5.61953 9.28571 6.92969 9.28571H14.9297C16.2578 9.28571 17.5234 9.74185 18.4609 10.5588L21.9297 13.6429L29.6641 8.08069L28.3828 6.01786H23.8047C22.8359 6.01786 21.9297 5.28599 21.9297 4.38393C21.9297 3.48186 22.8359 2.75 23.8047 2.75H28.7578V2.75ZM37 24.5357C37 26.939 39.2422 28.8929 42 28.8929C44.7578 28.8929 47 26.939 47 24.5357C47 22.1325 44.7578 20.1786 42 20.1786C41.8125 20.1786 41.625 20.1854 41.4453 20.2058L43.6484 23.7596C44.1406 24.5493 43.8047 25.5433 42.8906 25.9722C41.9844 26.4011 40.8437 26.1084 40.3516 25.3118L38.1484 21.758C37.4297 22.5137 37 23.4805 37 24.5357ZM21.8281 26.1696C20.9453 30.2 16.8828 33.25 12 33.25C6.47734 33.25 2 29.349 2 24.5357C2 19.7224 6.47734 15.8214 12 15.8214C16.8828 15.8214 20.9453 18.8714 21.8281 22.9018H16.6328C15.8984 21.3019 14.1016 20.1786 12 20.1786C9.23828 20.1786 7 22.1325 7 24.5357C7 26.939 9.23828 28.8929 12 28.8929C14.1016 28.8929 15.8984 27.7695 16.6328 26.1696H21.8281ZM9.5 24.5357C9.5 23.3307 10.6172 22.3571 12 22.3571C13.3828 22.3571 14.5 23.3307 14.5 24.5357C14.5 25.7407 13.3828 26.7143 12 26.7143C10.6172 26.7143 9.5 25.7407 9.5 24.5357Z" fill="white"/>
</svg>
