<svg width="43" height="45" viewBox="0 0 43 45" fill="none" xmlns="http://www.w3.org/2000/svg">
<path d="M26.3125 18.1128C25.5992 18.1139 24.895 18.2723 24.25 18.5769V12.6128C24.2455 11.3379 23.737 10.1164 22.8354 9.21488C21.9339 8.31334 20.7125 7.80486 19.4375 7.80033C18.6328 7.79808 17.8406 7.99909 17.1344 8.3847C16.7777 7.29942 16.0466 6.37641 15.0718 5.78074C14.097 5.18507 12.9421 4.95558 11.8137 5.13333C10.6852 5.31107 9.65674 5.88445 8.91225 6.75093C8.16777 7.6174 7.75579 8.72046 7.75 9.86283V11.0144C7.01644 10.6664 6.20678 10.5097 5.39637 10.5588C4.58596 10.608 3.80115 10.8613 3.11498 11.2953C2.42882 11.7293 1.8636 12.3298 1.47195 13.041C1.0803 13.7522 0.874948 14.5509 0.875 15.3628V29.8003C0.875 33.8117 2.46852 37.6588 5.30501 40.4953C8.1415 43.3318 11.9886 44.9253 16 44.9253C20.0114 44.9253 23.8585 43.3318 26.695 40.4953C29.5315 37.6588 31.125 33.8117 31.125 29.8003V22.9253C31.1205 21.6504 30.612 20.4289 29.7104 19.5274C28.8089 18.6258 27.5875 18.1174 26.3125 18.1128V18.1128ZM28.375 29.8003C28.375 33.0824 27.0712 36.23 24.7504 38.5508C22.4297 40.8715 19.2821 42.1753 16 42.1753C12.7179 42.1753 9.57032 40.8715 7.24955 38.5508C4.92879 36.23 3.625 33.0824 3.625 29.8003V15.3628C3.625 14.8158 3.8423 14.2912 4.22909 13.9044C4.61589 13.5176 5.14049 13.3003 5.6875 13.3003C6.23451 13.3003 6.75911 13.5176 7.14591 13.9044C7.5327 14.2912 7.75 14.8158 7.75 15.3628V22.9253C7.75 23.29 7.89487 23.6397 8.15273 23.8976C8.41059 24.1555 8.76033 24.3003 9.125 24.3003C9.48967 24.3003 9.83941 24.1555 10.0973 23.8976C10.3551 23.6397 10.5 23.29 10.5 22.9253V9.86283C10.5 9.31582 10.7173 8.79121 11.1041 8.40442C11.4909 8.01763 12.0155 7.80033 12.5625 7.80033C13.1095 7.80033 13.6341 8.01763 14.0209 8.40442C14.4077 8.79121 14.625 9.31582 14.625 9.86283V21.5503C14.625 21.915 14.7699 22.2647 15.0277 22.5226C15.2856 22.7805 15.6353 22.9253 16 22.9253C16.3647 22.9253 16.7144 22.7805 16.9723 22.5226C17.2301 22.2647 17.375 21.915 17.375 21.5503V12.6128C17.375 12.0658 17.5923 11.5412 17.9791 11.1544C18.3659 10.7676 18.8905 10.5503 19.4375 10.5503C19.9845 10.5503 20.5091 10.7676 20.8959 11.1544C21.2827 11.5412 21.5 12.0658 21.5 12.6128V25.1081C19.5785 25.4329 17.8339 26.4275 16.5755 27.9155C15.3172 29.4036 14.6262 31.289 14.625 33.2378C14.625 33.6025 14.7699 33.9522 15.0277 34.2101C15.2856 34.468 15.6353 34.6128 16 34.6128C16.3647 34.6128 16.7144 34.468 16.9723 34.2101C17.2301 33.9522 17.375 33.6025 17.375 33.2378C17.3795 31.7805 17.9605 30.3842 18.9909 29.3537C20.0214 28.3233 21.4177 27.7424 22.875 27.7378C23.2397 27.7378 23.5894 27.593 23.8473 27.3351C24.1051 27.0772 24.25 26.7275 24.25 26.3628V22.9253C24.25 22.3783 24.4673 21.8537 24.8541 21.4669C25.2409 21.0801 25.7655 20.8628 26.3125 20.8628C26.8595 20.8628 27.3841 21.0801 27.7709 21.4669C28.1577 21.8537 28.375 22.3783 28.375 22.9253V29.8003Z" fill="white"/>
<path d="M31.4991 7.07143H31.4998C31.533 7.07144 31.5658 7.07837 31.5962 7.09178C31.6266 7.1052 31.6539 7.1248 31.6763 7.14934C31.6987 7.17388 31.7157 7.20282 31.7263 7.23431C31.7369 7.2658 31.7408 7.29915 31.7378 7.33223L31.7377 7.33265L31.4996 9.95303L31.2609 7.33241L31.2609 7.33223C31.2578 7.29912 31.2618 7.26575 31.2724 7.23424C31.283 7.20274 31.3 7.17379 31.3224 7.14924C31.3449 7.1247 31.3722 7.1051 31.4026 7.0917C31.433 7.0783 31.4659 7.0714 31.4991 7.07143ZM38.9246 4.07538C36.9555 2.10625 34.2848 1 31.5 1C28.7152 1 26.0445 2.10625 24.0754 4.07538C22.1062 6.04451 21 8.71523 21 11.5C21 14.2848 22.1062 16.9555 24.0754 18.9246C26.0445 20.8938 28.7152 22 31.5 22C34.2848 22 36.9555 20.8938 38.9246 18.9246C40.8938 16.9555 42 14.2848 42 11.5C42 8.71523 40.8938 6.04451 38.9246 4.07538ZM31.5606 15.9035C31.5445 15.9195 31.5227 15.9286 31.5 15.9286C31.4773 15.9286 31.4555 15.9195 31.4394 15.9035C31.4233 15.8874 31.4143 15.8656 31.4143 15.8429C31.4143 15.8201 31.4233 15.7983 31.4394 15.7822C31.4555 15.7662 31.4773 15.7571 31.5 15.7571C31.5227 15.7571 31.5445 15.7662 31.5606 15.7822C31.5767 15.7983 31.5857 15.8201 31.5857 15.8429C31.5857 15.8656 31.5767 15.8874 31.5606 15.9035Z" fill="white" stroke="#011D47" stroke-width="2"/>
</svg>
