<svg width="126" height="126" viewBox="0 0 126 126" fill="none" xmlns="http://www.w3.org/2000/svg">
<path fill-rule="evenodd" clip-rule="evenodd" d="M23.1491 19.5205C21.3632 19.7762 19.1934 20.4894 18.3273 21.1058C17.0091 22.0439 13.6284 27.5617 12.6899 30.3058C12.4802 30.9198 12.2294 30.9092 11.4212 30.253C10.2928 29.3357 6.65415 29.6691 5.24737 30.8184C3.85928 31.9522 4.27275 33.6841 6.20752 34.8422C8.01391 35.9238 8.01512 35.9286 6.79639 37.0143C6.12435 37.613 5.15093 39.5371 4.63319 41.2892C3.76766 44.2207 3.7761 44.8419 4.74107 49.0461C5.31789 51.56 5.90495 55.4171 6.04659 57.6171C6.38232 62.8383 7.66252 64 13.0835 64C17.3864 64 19.1862 63.0412 19.7666 60.4395L20.1638 58.6602H36.6907C52.9386 58.6602 53.2183 58.6809 53.2183 59.8735C53.2183 60.541 53.8843 61.7424 54.698 62.5434C55.9607 63.787 56.7424 64 60.0412 64C65.6068 64 67.0811 62.7564 67.0811 58.0627C67.0811 56.1493 67.362 53.8567 67.7056 52.9679C68.7899 50.1604 69.345 44.3376 68.7688 41.8137C68.4662 40.487 67.5844 38.5837 66.8099 37.5839L65.4019 35.7666L67.1456 34.7811C69.0213 33.7215 69.4215 31.9475 68.0389 30.8184C66.6321 29.6691 62.9934 29.3357 61.8651 30.253C61.2684 30.7377 60.7687 30.8291 60.6391 30.4778C59.5445 27.5041 56.2343 22.0047 55.0235 21.148C54.1929 20.5606 51.8874 19.8178 49.9002 19.4974C45.7155 18.8228 27.9198 18.8382 23.1491 19.5205ZM48.2753 22.4289C51.134 22.7547 53.1176 23.3171 53.9397 24.0344C54.9782 24.9404 59.2456 33.0457 59.2456 34.1119C59.2456 34.2798 58.6453 34.3314 57.9118 34.2276C56.9323 34.0881 56.4646 33.4883 56.1506 31.9706C55.9161 30.8338 54.9789 29.2728 54.0687 28.5021C52.5637 27.2276 51.9622 27.1197 47.4079 27.306C41.9303 27.5308 40.4156 28.346 39.6357 31.4924L39.2367 33.0997L44.5703 33.2984C47.5032 33.4076 44.0718 33.4978 36.9445 33.4984C29.8172 33.499 26.2502 33.4094 29.0173 33.2984L34.049 33.0979L33.6506 31.4912C32.8676 28.333 31.3626 27.5308 25.7921 27.3024C20.8075 27.0983 20.6623 27.1315 18.8776 28.8883C17.6384 30.1082 17.0543 31.2681 17.0543 32.5087C17.0543 34.0602 16.8283 34.3344 15.5475 34.3344C14.7187 34.3344 14.0406 34.2157 14.0406 34.0703C14.0406 33.0291 18.3345 24.9173 19.3592 24.0232C20.0981 23.3776 22.1034 22.7232 24.1189 22.4693C29.0059 21.8534 43.0255 21.8297 48.2753 22.4289ZM19.3736 43.6583C21.758 44.8057 22.5157 46.7198 21.0571 47.9111C20.4989 48.3674 18.584 48.5644 15.7958 48.4528C11.5538 48.2831 11.3892 48.2197 10.6876 46.4973C10.2145 45.335 10.1518 44.2255 10.5062 43.3011C11.0083 41.9917 11.2801 41.9116 14.1112 42.2414C15.7946 42.4378 18.1633 43.075 19.3736 43.6583ZM62.7475 44.2451C62.8499 45.2905 62.6311 46.7031 62.2611 47.3843C61.6547 48.4991 61.1309 48.6053 57.0143 48.4499C53.4407 48.3152 52.2961 48.05 51.7777 47.2389C51.2962 46.4842 51.2956 45.917 51.7777 45.1623C52.7234 43.6796 57.3199 42.0611 60.1497 42.2135C62.3895 42.3346 62.5739 42.4794 62.7475 44.2451Z" fill="#464646"/>
<path d="M70.9915 68.4675C70.4821 67.9845 69.2069 67.3243 68.1564 67.0015C67.0919 66.6735 64.6509 66.6671 62.638 66.9867L59.0284 67.5597L58.7425 69.8612C58.4774 71.9934 58.6262 72.2957 60.7652 73.9753C62.0352 74.9726 66.8608 77.4746 71.4892 79.5355C76.1174 81.5957 79.978 83.3349 80.0678 83.399C80.1576 83.4637 80.217 85.8288 80.1996 88.6555C80.1645 94.4093 80.6408 96.2405 82.3478 96.9081C83.2447 97.2591 96.4457 97.7331 98.5 97.4882C98.7188 97.4622 98.5448 95.606 98.1133 93.3637C97.4736 90.0386 97.5048 88.8089 98.284 86.6957C100.199 81.4987 105.33 77.6961 110.005 78.0094C112.914 78.2039 115.293 76.4449 115.49 73.9531C115.868 69.1612 111.298 63.6895 106.273 62.9191C100.863 62.0896 97.2232 63.4355 98.9928 65.6109C99.3454 66.0439 99.7106 67.0093 99.8052 67.7569C99.936 68.7975 99.6306 69.1569 98.501 69.2915C97.6893 69.3883 96.8094 69.1953 96.5449 68.8633C95.8917 68.0425 90.6162 69.4283 87.5231 71.2331C85.1229 72.6335 83.49 72.9017 81.0468 72.2961C77.5509 71.4304 71.8098 69.2441 70.9915 68.4675Z" fill="#464646"/>
<path d="M73.7979 82.506C72.4208 81.4227 70.3817 80.3858 69.2664 80.2031C68.1511 80.0203 66.8276 79.8961 66.3257 79.9277C64.1206 80.0649 60.8653 81.9742 59.1767 84.1198C53.5171 91.3102 59.3364 101.543 68.4656 100.455C71.8061 100.057 73.9642 98.6931 75.8968 95.7602L77.3366 93.5743L75.059 93.6527C73.7196 93.6989 72.2325 94.1918 71.4502 94.849C69.7619 96.267 65.9337 96.7434 64.1053 95.7624C63.3326 95.3475 62.2831 94.1173 61.7738 93.0281C60.5456 90.4008 61.4597 87.0284 63.8365 85.4162C66.0557 83.9117 66.4963 83.8843 69.8504 85.0415C72.0437 85.7983 73.053 85.8423 74.4784 85.2427L76.3014 84.4768L73.7979 82.506Z" fill="#464646"/>
<path d="M111.228 86.287C109.913 83.9949 108.501 81.4784 108.092 80.6954C107.682 79.9118 106.918 79.3218 106.395 79.3842C104.822 79.5716 101.978 81.7795 102.368 82.5109C104.534 86.5742 108.01 92.5294 108.533 93.0744C109.681 94.2695 112.642 93.517 113.159 91.8997C113.528 90.7426 113.144 89.6249 111.228 86.287Z" fill="#464646"/>
<path d="M120.782 89.6224C120.26 85.2352 115.967 81.0508 111.544 80.6156C110.474 80.5107 109.423 80.5459 109.207 80.6936C108.379 81.2625 110.893 84.4947 112.864 85.3933C118.492 87.959 117.273 96.1427 111.155 96.8718C109.14 97.112 108.346 96.8419 106.642 95.3385C104.773 93.6887 104.574 93.2288 104.572 90.5436C104.571 88.7293 104.185 86.8959 103.582 85.8338C102.646 84.1868 102.55 84.1577 101.75 85.286C100.517 87.0235 99.9773 89.6967 100.304 92.44C101.279 100.623 111.899 104.076 117.837 98.1412C119.634 96.3456 121.084 92.1517 120.782 89.6224Z" fill="#464646"/>
<path d="M79.4086 90.0266C79.4642 88.8013 79.4382 87.1739 79.3509 86.4102C79.1927 85.0259 79.176 85.0249 73.0461 86.1704C66.4696 87.3998 65.215 87.941 64.4578 89.8782C63.8869 91.3376 65.1678 93.8349 66.684 94.2181C67.2174 94.3531 70.276 93.9665 73.4811 93.359L79.3075 92.2539L79.4086 90.0266Z" fill="#464646"/>
</svg>
