<svg width="44" height="44" viewBox="0 0 44 44" fill="none" xmlns="http://www.w3.org/2000/svg">
<path d="M3.26501 33.836C3.40388 34.4392 3.69893 34.9953 4.12055 35.4484C4.54217 35.9016 5.07556 36.236 5.6672 36.418L6.02723 38H5.99722V42H37.9997V38H11.3636C11.3899 37.8152 11.3852 37.6273 11.3496 37.444L10.9576 35.718L31.6732 31.006L32.0652 32.732C32.1697 33.1899 32.4517 33.5876 32.8492 33.8378C33.2468 34.0879 33.7274 34.17 34.1854 34.066L35.9115 33.672C36.1384 33.6205 36.3529 33.5248 36.5428 33.3904C36.7327 33.256 36.8942 33.0854 37.0181 32.8885C37.142 32.6916 37.2259 32.4723 37.2649 32.2429C37.304 32.0136 37.2974 31.7788 37.2456 31.552L36.7436 29.346C37.6357 28.514 38.0837 27.254 37.7937 25.98L36.6136 20.8C36.4704 20.1759 36.1597 19.6027 35.7149 19.1421C35.2701 18.6815 34.7081 18.351 34.0894 18.186L29.9911 11.43C29.3867 10.4374 28.4859 9.65959 27.4157 9.20636C26.3456 8.75314 25.1601 8.64738 24.0266 8.904L8.2894 12.484C7.15468 12.741 6.12972 13.3488 5.35997 14.2212C4.59022 15.0936 4.11476 16.1862 4.00107 17.344L3.22701 25.208C2.74151 25.6248 2.37882 26.1661 2.17794 26.7736C1.97707 27.3812 1.9456 28.0319 2.08692 28.656L3.26501 33.836ZM9.30548 32.46C8.96546 32.5375 8.61351 32.5472 8.26972 32.4887C7.92593 32.4302 7.59704 32.3045 7.30182 32.1189C7.0066 31.9333 6.75083 31.6913 6.54913 31.4069C6.34742 31.1224 6.20372 30.801 6.12623 30.461C6.04875 30.121 6.03899 29.7691 6.09752 29.4253C6.15606 29.0816 6.28173 28.7527 6.46737 28.4575C6.65301 28.1623 6.89497 27.9066 7.17946 27.7049C7.46394 27.5032 7.78537 27.3595 8.12539 27.282C8.81209 27.1255 9.53282 27.2482 10.129 27.6231C10.7253 27.998 11.1481 28.5944 11.3046 29.281C11.4611 29.9676 11.3384 30.6883 10.9635 31.2845C10.5886 31.8807 9.99218 32.3035 9.30548 32.46ZM31.7512 27.356C31.4054 27.4511 31.0439 27.4751 30.6885 27.4267C30.3331 27.3782 29.9912 27.2583 29.6835 27.0742C29.3757 26.8901 29.1084 26.6455 28.8977 26.3553C28.687 26.0651 28.5372 25.7352 28.4575 25.3856C28.3777 25.0359 28.3696 24.6737 28.4336 24.3209C28.4977 23.968 28.6325 23.6317 28.83 23.3324C29.0275 23.033 29.2836 22.7768 29.5828 22.5791C29.8821 22.3813 30.2183 22.2463 30.5711 22.182C31.2443 22.0594 31.9388 22.2012 32.5099 22.578C33.081 22.9548 33.4847 23.5374 33.6369 24.2044C33.789 24.8715 33.6779 25.5715 33.3266 26.1586C32.9753 26.7457 32.411 27.1747 31.7512 27.356ZM9.17547 16.384L24.9147 12.802C25.2301 12.7307 25.5598 12.7602 25.8576 12.8861C26.1554 13.012 26.4062 13.2281 26.5748 13.504L29.7451 18.73L28.613 18.988L8.51942 23.562L7.38333 23.82L7.98138 17.736C8.01357 17.4139 8.14618 17.1101 8.36045 16.8675C8.57472 16.6249 8.85983 16.4558 9.17547 16.384ZM34.8094 6L31.9992 2L30.9992 8L35.9995 16L42 18L37.9997 12.922L42 11.056L37.9997 9.19L42 2L34.8094 6Z" fill="white"/>
</svg>
