<svg width="62" height="45" viewBox="0 0 62 45" fill="none" xmlns="http://www.w3.org/2000/svg">
<path d="M43.5938 4.00002C42.9941 3.99781 42.4088 4.1666 41.9202 4.48265C41.4315 4.7987 41.0641 5.2461 40.8696 5.76193H32.9375V9.28573H41.1719L41.7783 11.0476H34.875C29.8181 11.0476 27.2761 13.5249 26.3384 14.5714H19.7993C17.6098 13.4177 15.1243 12.8099 12.5938 12.8095C8.40875 12.8095 4.96388 14.2966 4.96388 14.2966L6.66112 17.4892C6.66112 17.4892 9.42981 16.3333 12.5938 16.3333C14.1612 16.3333 15.6356 16.7668 16.7109 17.1597L15.0156 20.3505C13.9183 20.0351 12.7758 19.8689 11.625 19.8572C5.21381 19.8572 0 24.5984 0 30.4286C0 36.2587 5.21381 41 11.625 41C14.3703 41.0007 17.027 40.1158 19.1223 38.5027C21.2176 36.8896 22.6157 34.6529 23.0679 32.1905H29.7891C31.2577 32.1905 32.6507 31.4135 33.3018 30.2083H33.2397L35.3594 26.2987C38.5834 24.9508 41.2106 22.611 43.0493 20.4086C43.555 19.8025 43.9871 19.2458 44.3804 18.6996L48.4976 30.9237L52.2524 29.9335L50.0728 23.4356C50.1774 23.4285 50.2684 23.381 50.375 23.381C54.6511 23.381 58.125 26.5401 58.125 30.4286C58.125 34.3171 54.6511 37.4762 50.375 37.4762C48.8612 37.4742 47.3811 37.0695 46.1172 36.3118C44.8534 35.5541 43.861 34.4766 43.2624 33.2122C42.6637 31.9478 42.4851 30.5517 42.7485 29.1961C43.0119 27.8405 43.7058 26.5847 44.7446 25.5833L43.5337 21.8939C42.0544 22.8741 40.8502 24.1579 40.019 25.6408C39.1878 27.1238 38.7531 28.7641 38.75 30.4286C38.75 36.2587 43.9638 41 50.375 41C56.7862 41 62 36.2587 62 30.4286C62 24.5984 56.7862 19.8572 50.375 19.8572C49.8684 19.862 49.3627 19.8991 48.8618 19.9682L45.2891 9.28573H48.4375V4.00002H43.5938ZM34.875 14.5714H42.625C41.8384 15.8594 40.9479 17.0926 39.9609 18.2609C38.1591 20.4086 35.6539 22.6921 33.2397 23.492L32.4531 23.7122L32.1509 24.3729L29.7891 28.6667H11.625V32.1905H19.0728C18.2086 35.2262 15.2268 37.4762 11.625 37.4762C7.34894 37.4762 3.875 34.3171 3.875 30.4286C3.875 26.5401 7.34894 23.381 11.625 23.381C14.4789 23.381 16.9376 24.8063 18.2861 26.9048H22.5835C21.7945 24.8969 20.3601 23.1511 18.4663 21.8939L20.5859 18.0953H28.1538L28.7603 17.3235C28.7603 17.3235 30.6377 14.5714 34.875 14.5714Z" fill="white"/>
</svg>
