<svg width="48" height="48" viewBox="0 0 48 48" fill="none" xmlns="http://www.w3.org/2000/svg">
<path d="M42.6641 8H5.33073C4.62349 8 3.94521 8.28095 3.44511 8.78105C2.94501 9.28115 2.66406 9.95942 2.66406 10.6667V37.3333C2.66406 38.0406 2.94501 38.7189 3.44511 39.219C3.94521 39.719 4.62349 40 5.33073 40H25.3307L26.0907 39.0667L27.3307 37.5467L27.2107 37.3333H5.33073V10.6667H42.6641V22.08C43.677 22.7357 44.5775 23.5507 45.3307 24.4933V10.6667C45.3307 9.95942 45.0498 9.28115 44.5497 8.78105C44.0496 8.28095 43.3713 8 42.6641 8Z" fill="white"/>
<path d="M9.33594 16H32.0026V18.1333H9.33594V16Z" fill="white"/>
<path d="M9.33594 21.333H24.0026V23.4663H9.33594V21.333Z" fill="white"/>
<path d="M9.33594 30.667H22.6693V32.8003H9.33594V30.667Z" fill="white"/>
<path d="M36.6137 22.9729C34.9075 22.9594 33.2369 23.4609 31.8202 24.4118C30.4035 25.3628 29.3066 26.719 28.6729 28.3033C28.0392 29.8875 27.8982 31.6261 28.2682 33.2917C28.6383 34.9574 29.5022 36.4727 30.7471 37.6396L28.1604 40.7996L29.3604 45.6129L34.2404 39.6663C35.7851 40.123 37.429 40.123 38.9737 39.6663L43.8537 45.6129L45.0537 40.7996L42.4671 37.6396C43.712 36.4727 44.5759 34.9574 44.9459 33.2917C45.316 31.6261 45.1749 29.8875 44.5412 28.3033C43.9075 26.719 42.8107 25.3628 41.394 24.4118C39.9773 23.4609 38.3066 22.9594 36.6004 22.9729H36.6137ZM36.6137 37.2129C35.4807 37.1971 34.3776 36.8468 33.4432 36.2058C32.5087 35.5648 31.7846 34.6619 31.3619 33.6105C30.9392 32.5592 30.8367 31.4063 31.0674 30.2969C31.2981 29.1875 31.8516 28.171 32.6584 27.3753C33.4652 26.5796 34.4892 26.0402 35.6017 25.8249C36.7142 25.6095 37.8656 25.7279 38.911 26.1651C39.9564 26.6023 40.8492 27.3388 41.4772 28.2821C42.1052 29.2253 42.4403 30.3331 42.4404 31.4663C42.4263 32.9999 41.8054 34.4655 40.7134 35.5425C39.6215 36.6194 38.1474 37.22 36.6137 37.2129Z" fill="white"/>
</svg>
